<?xml version="1.0" encoding="UTF-8" standalone="no"?>
<svg viewBox="0 0 153.09062 149.65038" xmlns="http://www.w3.org/2000/svg" xmlns:xlink="http://www.w3.org/1999/xlink">
<defs>
<pattern height="16.125" id="pattern23027" patternTransform="translate(787.0625,270.1562)" patternUnits="userSpaceOnUse" width="16.125">
<path d="m0,0v1.96875l14.125,14.15625h2v-2.0625l-14.0625-14.0625h-2.0625zm6.09375,0 10.03125,10v-4l-5.96875-6h-4.0625zm8.09375,0 1.9375,1.9375v-1.9375h-1.9375zm-14.1875,6v4.0625l6.0625,6.0625h4.0625l-10.125-10.125zm0,8.09375v2.03125h2.03125l-2.03125-2.03125z" fill="#fff" fill-rule="evenodd"/>
</pattern>
<pattern id="pattern36384" patternTransform="translate(565.8391,522.6943)" xlink:href="#pattern23027"/>
</defs>
<g transform="translate(-369.16898,-254.67984)">
<path d="m369.16898,254.67984h153.09062v149.65038h-153.09062z"/>
<g transform="matrix(.53351,0,0,.53351,1.47301,-35.63559)">
<path d="m1175.3125,433.13867a114.14724,114.14724 0 1,1 -228.29446,0 114.14724,114.14724 0 1,1 228.29446,0z" stroke="#fff" stroke-width="3.98213" transform="matrix(.98894,0,0,.98894,-216.7475,256.0668)"/>
<path d="m817.71849,663.45345c.31-1.84854-2.3386-5.31379-3.0305-8.08122-.6419-2.56789-1.1554-4.18593-2.5254-5.55584-2.7164-2.71644-3.5355-1.3937-3.5355,2.02031 0,2.34664-.538,4.67739-1.0101,6.56599-.5332,2.13255-2.5369,3.54702-3.5356,4.54568-1.9177,1.91772-3.3139,1.9095-5.5558,3.03046-2.0094,1.00469-4.5457,2.88861-4.5457-1.01015 0-3.00242 1.5626-3.58295 3.0305-5.05076 1.5309-1.53091 1.8689-3.73789 3.0304-6.06092 1.1485-2.297 2.0203-3.44423 2.0203-6.56599 0-4.51383-2.318-1.72263-4.0406,0-1.5074,1.50738-2.265,3.51988-3.0304,5.05076-.9902,1.98032-4.7655.82895-6.061.50508-2.2215-.55539-.9962-4.51782-2.0203-6.56599-1.2947-2.58957-1.1189-3.93184.5051-5.55584 1.7302-1.73022 3.4404-1.92514 5.0508-3.53554 2.6346-2.63461-.3402-3.03045-3.0305-3.03045-2.7534,0-4.9561-.50508-7.5761-.50508-2.2597,0-2.0203-3.79251-2.0203-6.06091 0-1.21455-4.44628-3.07182-6.06095-4.04061-2.16973-1.30184-1.50131-3.59122-1.01015-5.55584 .49811-1.99244 3.993-3.03046 6.0609-3.03046 3.5723,0 1.8885-1.80071-1.01014-2.52538-1.15504-.28876.24897-3.53554-4.04061-3.53554-.7135,0-3.89075,2.48792-4.04061,2.52538-2.08476.52119-.06967-5.92157 0-6.06091 1.41568-2.83136 3.09259-2.96833.50508-5.55584-1.55196-1.55196-2.99169-3.45798-4.04061-5.55584-1.00393-2.00786 3.88033-3.70793 4.54568-4.04061 2.04364-1.02182 3.29243-2.15129 5.05077-3.03046 2.54113-1.27057 2.8807-1.85659 5.55584-2.52538 1.986-.49651 3.6128-1.51523 6.0609-1.51523 3.174,0 4.413.40554 6.566,2.02031 1.703,1.27726 2.7218,2.6236 4.5457,3.53553 1.7374.86871 2.7434,3.24845 4.0406,4.54569 2.2099,2.20989 3.4916,5.0068 5.5558,7.07107 1.6754,1.67535 2.0871,3.60232 3.5356,5.05076 1.5972,1.59726 2.4008,3.54255 3.0304,6.06091 .6556,2.62246 2.4303,4.45055 4.0406,6.06092 2.2301,2.23004 3.4104,3.2852 4.5457,5.55584 1.006,2.01195 2.8994,1.75805 4.0406,4.04061 1.0736,2.14707 2.0203,2.71867 2.0203,6.06091v7.07107c0,2.35643 1.0102,3.99156 1.0102,6.56599 0,2.80704 1.1437,4.41213-1.0102,6.566-.9977.9977-2.5448,4.07955-3.5355,6.06091-.8645,1.72906-2.6814,3.02123-4.0406,4.04061-1.0775.80812-2.6937,0-4.0406,0z" fill="url(#pattern36384)" fill-rule="evenodd"/>
<path d="m930.35049,690.98012c2.3474-4.15505 4.7994-9.55078 5.3019-14.73878-.9941-4.6488 2.7282-9.45357 6.7439-4.93755 4.2562,2.10884.1103-8.08577.2823-10.69481-1.4647-5.35388-2.0359-10.81072-4.5978-15.77975-1.3927-4.63069-3.4329-9.48385-6.494-13.3233-1.2559-4.90479-3.1764-9.28671-7.2972-12.49919-5.93-4.41304-6.7418,8.99907-11.341,3.40682-3.2655-5.62348-8.2693,2.05627-13.0611-1.73568-5.1621.47038-7.2803-10.88182-1.4579-9.96862 8.4295-.37153 13.9138-4.31576 5.6006-13.27757-2.0981-2.99531-10.009-7.50259-10.8593-8.20825-1.53-1.2698-1.4591,2.12516-3.7247,2.08257-1.0027-.01884-1.2103-1.98926-2.6882-2.84149-1.8245-1.05212-3.4946-4.99036-4.4764-5.45869-5.0055-2.53322-13.5377-5.53546-18.8041-7.52089-5.5942-1.54385-12.1453-2.69496-19.1484-3.53478-3.0051,2.7526-6.4519,11.25826-1.5465,16.22626 28.1168,3.06474 14.0334,43.73406 33.2427,51.81815 4.3957,2.70138 8.2052,6.39234 13.0548,8.28288 4.1064,2.66385 6.7217-14.27776 8.1505-18.05159 4.0271-4.58572 2.5306,5.67363 2.1203,7.85748-1.012,4.64606-2.0079,10.00421-6.376,12.7432-2.6571,2.61647-9.802.05345-10.4907,2.92603 2.3681,4.04922 4.9716,7.9496 7.2689,12.07085 2.4681,5.58421 9.6982,7.26544 11.7241,13.21923 3.6895,5.10297 23.2517,14.3275 28.8733,11.93747zm-14.6472-82.32744c-.3684.52465-.451,2.56148-.7576,3.78807-.3715,1.48572.334,2.43581.7576,3.28299 .437.87414 1.3743,1.26269 2.5254,1.26269 1.1828,0 1.7929-.50507 3.283-.50507-.6562-2.5576-.8575-3.50526-2.5254-4.54569l-2.2729-2.27284-1.0101-1.01015zm-3.8017,2.76549c-.716.25274-1.0196.16921-2.0536-.08928-1.2402-.31006-1.4289-.89156-1.25-1.60715 .1689-.67553 1.4381-.53571 2.1429-.53571 2.216,0 1.3119,1.58239 2.1428,1.25 .5978-.23912-.891.34477-.9821.98214z" fill="url(#pattern36384)" fill-rule="evenodd"/>
<path d="m779.13369,586.15031c8.5794-7.46637 20.2309-9.46059 31.0715-10.89285 5.9698-3.20193 11.84,1.24005 14.7809,3.05695 2.6177-5.42745 11.4345,2.30177 10.5762-5.55695 4.8675-1.52996 7.5576,7.5829 12.7694,2.71027 5.9245,5.69191-9.4952,7.44669-6.531,11.58174 8.886-1.00002 13.3959,6.73092 20.5872,9.46566-3.3222-5.52741-.4428-5.74796-2.0263-8.12374-3.1873-4.78185-7.5865-7.69829 1.8141-5.44933 10.7736,6.01225 6.0494-2.37281 19.1009,8.02969 3.8811-.5522 5.4011,3.06521 5.2956,5.26297-.0843,1.75551-1.1869,3.27796-5.2956.80845-5.5233,3.93899-5.7006,6.86313-1.0714,2.14286 4.5474.04482 4.6208,8.93698 9.9913,3.93721-.1341,1.50928-.9144,3.41878-1.9478,3.87822-1.3576.6036-3.1522-.47058-4.4919.0085-1.6046.5738-1.9461,1.81343-2.4802,5.03321-3.7112.91484-5.2611,2.90863-5.1407,5.57617 .1929,4.2761 3.0921,9.68889-3.6671,10.69085-7.8065,3.8506 7.7098,17.94519.2364,17.66155-4.6805-4.73403-5.9204-12.01421-14.1476-10.26615-3.6128-.63164-4.3879,5.50588-9.4672,1.73805-10.4185-.6254-12.9038,12.61324-8.5281,19.59953 2.8364,9.10398 14.3871,3.47606 15.9051-2.63513 13.9456-2.19575-5.615,17.28059 9.4521,14.42085 9.8018-.67414 1.0669,16.85791 13.5492,14.5649 7.374.89707 15.1853-14.68214 22.0481-4.61065 3.8924-.97841 8.33-2.26406 11.8102-.78271 4.026,1.71367 7.027,6.44691 10.5381,8.66309 11.5895-.91159 2.5464,14.69436 13.8395,13.68091 11.8472-1.23827 3.3258,11.69615 2.6198,17.8922-3.0202,9.031-6.8022,17.88864-11.9049,25.94939-9.3044,4.37878-13.2462,15.20864-20.7143,21.78572-9.1585,2.67541-15.2483,10.81372-23.3286,15.29286-4.5242,4.1201-13.7624,11.2182-18.0983,9.76237 4.1813-7.61959 9.3845-13.82906 14.4175-21.06593 3.9001-8.79953 17.4109-20.52655 11.4253-29.61602-9.5596-4.46655-9.9444-17.40463-16.0919-25.17046 4.0424-3.95256-.6116-11.28608 6.676-14.9171 3.5631-3.03007 3.8421-17.88072-3.4796-13.22464-10.5084-2.3504-15.1715-14.26529-26.1633-14.98965-6.8813-6.10039-17.0724-3.10477-25.4596-8.89049-8.0574-3.5736-7.3008-15.06671-14.8261-19.83927-1.8357-2.42548-6.4238-12.87439-7.9286-7.34167 .555,4.03315 11.4496,19.18761 2.8572,10.35715-5.793-8.01589-8.7589-17.61735-13.9286-26.07143-4.5621-7.57612 4.3351-13.80692 2.8571-20.71429 4.9993-.91686-4.5375-8.49179-3.3564-13.42932-3.6501-5.12377-4.3113.51192-8.7864-.85639-.345,3.80161-3.3456,2.19749-5.3572.89285z" fill="#fff" fill-rule="evenodd"/>
<path d="m742.20957,696.78848c1.01874.63016 2.17478,2.13311 2.52539,3.53554 .26883,1.07534 1.30317,1.91428 2.0203,2.27284 .75498.37749 1.31666,1.82173 1.76777,2.27284 .9526.95261 2.78249-1.5198 3.03046-1.76776 .98625-.98625 1.45763-2.0779.25253-3.283-.77157-.77157-1.62249-.86488-2.27284-1.51523-1.00502-1.00502 2.29928-1.4587 2.52538-1.51523 1.09849-.27462 1.6019-.80094 2.52538-1.26269 1.17649-.58824 2.30923-.49598 3.283-.25253 1.06166.26541.77329,2.05165 1.26269,3.03045 .14916.29833 2.14422,1.13407 2.52538,1.51523 1.46629,1.46629.87611-1.79887.75761-2.27284-.20647-.8259-.85343.02395 1.2627-.50508 1.04338-.26084 1.88279.9414 2.52538,1.26269 .70618.35309.86233,2.43919 1.01015,3.03046 .27585,1.10339 1.76289,1.57714 2.52538,1.76777 .8324.2081 1.76206,1.00872 2.77792,1.26269 1.09935.27484 2.12131,1.22481 3.283,1.51523 1.36642.3416 2.20222.3435 3.53554,1.01015 1.1588.57938 1.4577.6801 2.7779,1.01015 1.2852.32129 1.7582,1.49617 2.2729,2.52538 .6011,1.20234-.7475,2.50514-1.0102,3.03046-.4072.81447.5528,2.96896.7576,3.78807 .3661,1.46418.0073,2.2437-.2525,3.283-.2802,1.12068.0076,2.80836.2525,3.78807 .2203.88126 1.3997,1.39969 2.0203,2.02031 1.1524,1.15238.2701,2.26407-.7576,2.77792-1.0801.54004-1.8606.75761-3.283.75761-1.1738,0-2.3327-.70946-3.53552-1.01015-1.02464-.25616-2.20775-.25254-3.53554-.25254-1.34149,0-2.2112.40963-3.53553-.25254-.8964-.4482-2.12826-.72147-3.283-1.01015-1.2611-.31528-1.79895.28372-2.52538,1.01015-.73634.73634-.72918,2.72104-1.01015,3.283-.52664,1.05328-1.47643.85493-1.76777,2.0203-.34355,1.37419.2361,2.45963.50508,3.53554 .27705,1.1082-.15484,2.07744-.75762,3.28299-.71942,1.43884-.80546,1.61425-2.0203,2.52538-.62242.46681-2.63977.25254-3.53554.25254-.83143,0-2.06704-1.15979-2.77792-1.51523-.93011-.46506-1.28785-2.28542-2.27284-2.77792-.91315-.45657-1.87279-1.3152-2.77792-1.76776-1.20689-.60345-1.79859-1.30379-2.52538-2.27285-.77822-1.03762-1.2153-1.57819-1.51523-2.77792-.27174-1.08697-1.00907-2.52322-1.51523-3.53553-.67068-1.34137-.96126-2.07727-1.26269-3.283-.28389-1.13558-.50507-1.82754-.50507-3.28299 0-1.27256-.50508-2.05141-.50508-3.53554 0-1.34843.44077-2.26816.75761-3.53553 .24953-.99811.96744-1.34435 1.26269-2.52538 .27732-1.10924.25254-2.17515.25254-3.53554 0-.09474-1.74156-2.47297-2.0203-3.03045-.47566-.95132-.25254-2.40556-.25254-3.53554 0-1.03913.96007-2.17267 1.26269-2.77792 .34944-.69888-.31573-2.30454-.50508-2.77792z" fill="url(#pattern36384)" fill-rule="evenodd"/>
<path d="m795.49509,790.22758c-1.3319-3.96128-.9815-8.50884 1.4203-11.99645 .8113-2.32266 2.8238-3.70515 4.6406-5.17613 2.6994-1.42702 5.9481-1.06166 8.8064-2.07533 2.9735-.7835 6.1649-1.84147 9.1529-.4777 3.9049,2.32129 8.5793.08125 12.6643,1.72251 2.5382.68546 4.5806,3.54282 7.4515,2.33403 3.1192-.67369 6.0499-2.36088 9.339-2.00859 2.746.32324 5.8283-.7172 8.3358.66151 1.9221,1.67634 4.1739,2.89136 6.095,4.54813 1.7325,2.05663 4.5643,3.79401 4.7715,6.6949-1.2156,2.37731-1.5886,6.27615-3.7182,8.04775-19.7982,6.14325-42.8237,7.1106-66.814-.85409-.7392-.4368-1.4093-.97846-2.1451-1.42054z" fill="url(#pattern36384)" fill-rule="evenodd"/>
<path d="m769.48369,630.37095c-.6405,1.23065-.5947,2.35839-2.27284,2.77792-1.62007.40502-1.64129.50551-1.01015,1.76777 .66257,1.32514-.16858.96817-1.26269,1.51523-.61656.30828-1.34926,1.6018-1.76777,2.0203-.70758.70759-3.11742-.42228-3.283-.50507-.35129-.17565-.70603-2.82413-.75761-3.03046-.32075-1.283-.60819-1.97398-1.01015-2.77792-.52046-1.0409-1.32596-.63108-.50508-2.27284 .44767-.89534.90891-2.07036 1.26269-2.77792 .20671-.41341-1.8102-2.49778-2.0203-2.77792-.74932-.99909-1.01199-2.02763-1.26269-3.03046-.26387-1.05546 1.95669-1.30992 2.77791-1.51523 .98722-.2468 1.5578-1.55779 2.02031-2.0203 .9104-.91041 2.83683.53453 3.78807,1.01015 .99032.49516.00992,2.29268.50508,3.283 .56178,1.12355.75761,1.97577.75761,3.28299 0,.93417-1.28261,1.59493-1.51523,2.52538-.47791,1.91166 1.12226,1.73974 2.02031,1.51523 1.14742-.28685 1.07304-1.01015 2.77792-1.01015 .51027,0 .72016,1.83302.75761,2.0203z" fill="url(#pattern36384)" fill-rule="evenodd"/>
<path d="m783.41949,677.40032c-.2897,0-1.3361-3.19116 1.4285-2.5 .9312.23278-.829,1.75052-1.4285,2.5zm-16.42862,1.07142c.69409-1.52202.62195-3.21428 3.21429-3.21428 1.04625,0 3.33493,1.90636 3.92857,2.5 1.44386,1.44386 2.97796,1.39837 0,2.14286-1.81736.45434-1.84435,1.42857-4.28572,1.42857-1.34687,0-1.90476-1.90476-2.85714-2.85715zm9.46428,3.92858c-.23233,0 .15027-4.22911.53572-5 .85258-1.70516 1.62418-2.69561 2.50002-3.57143 1.259-1.25906.4765-3.33268 0-4.28572-.6024-1.20467 2.8571,1.51028 2.8571,2.85715 0,.91506-1.0714,2.64483-1.0714,4.64285 0,1.66117-1.2209,3.00658-2.1429,3.92857-1.41947,1.41951-.3193,2.85715-2.85711,2.85715-.7355,0-2.41563-1.42857.17857-1.42857zm12.14284-5c2.2493.56232.5429-.01435 1.9643-2.85715 .9325-1.86493 1.4061-2.87966 0-4.28571-1.232-1.23201-2.0727-1.07143-4.2857-1.07143-.7038,0-1.958,2.83189-2.1429,3.57143-.4738,1.89553 2.2827,4.64286 4.4643,4.64286zm-4.1071-7.85715c-.5058,2.02311-2.1429-2.50835-2.1429-3.92857 0-1.87392 3.8258,1.22306 3.9286,1.42857 .9032,1.80635.292,2.08446-1.7857,2.5zm-9.46431,6.07143c.98072,1.96144 2.40452-1.23761 2.67858-1.78571 .23708-.47416-3.23857-2.33357-3.57143-2.5-2.77755-1.38878-1.93276,1.84877-1.42857,2.85714 .2649.52982 1.48263,1.42857 2.32142,1.42857zm1.60715-6.07143c.60702,1.21406-.14263-3.32154 1.07143-3.92857 2.22353-1.11174 3.33283-.95432 3.92853,1.42857 .2103.84107-4.30006,2.22004-4.99996,2.5z" fill="url(#pattern36384)" fill-rule="evenodd"/>
</g>
</g>
</svg>
