<?xml version="1.0" encoding="UTF-8" standalone="no"?>
<!-- Created with Inkscape (http://www.inkscape.org/) -->
<svg xmlns:svg="http://www.w3.org/2000/svg" xmlns="http://www.w3.org/2000/svg" xmlns:inkscape="http://www.inkscape.org/namespaces/inkscape" xmlns:sodipodi="http://sodipodi.sourceforge.net/DTD/sodipodi-0.dtd" xmlns:ns1="http://sozi.baierouge.fr" xmlns:xlink="http://www.w3.org/1999/xlink" xmlns:dc="http://purl.org/dc/elements/1.1/" xmlns:cc="http://web.resource.org/cc/" version="1.0" width="452.28571" height="591.27911" id="svg2" inkscape:version="0.91 r13725" xmlns:rdf="http://www.w3.org/1999/02/22-rdf-syntax-ns#">
  <defs id="defs4"/>
  <g transform="translate(-146.57143,-118.70032)" id="layer1">
    <path d="M 146.57143,705.49253 C 146.57143,702.75914 147.83835,701.39244 150.37215,701.39244 C 152.46255,701.39244 154.17287,700.46991 154.17287,699.34239 C 154.17287,698.21486 153.01101,697.29234 151.59099,697.29234 C 149.54082,697.29234 149.83148,694.12585 153.00235,681.91697 C 155.3827,672.7519 158.00601,666.54161 159.49711,666.54161 C 160.87295,666.54161 161.53196,665.72706 160.96159,664.73147 C 159.98782,663.0318 169.35538,632.57234 172.54998,627.05072 C 173.35669,625.6564 174.22715,622.67056 174.48434,620.41551 C 175.68514,609.88746 179.83454,593.0712 182.87048,586.42902 C 187.63755,575.99935 191.62669,554.45746 193.84996,527.13829 C 194.92695,513.9044 197.48235,498.25109 199.6754,491.45401 C 202.22886,483.5399 203.58224,474.1868 203.58224,464.45413 C 203.58224,451.42062 204.44907,447.68846 210.53083,434.53684 C 223.56872,406.34281 227.32716,403.12809 240.37573,409.00957 C 247.63083,412.27973 266.9963,409.78751 272.14483,404.92108 C 273.79493,403.3614 276.05513,402.08531 277.1675,402.08531 C 278.27988,402.08531 279.72423,400.58346 280.37717,398.74789 C 281.32209,396.0915 283.01166,395.71296 288.65702,396.89278 C 304.47851,400.19933 314.85115,401.50966 316.57328,400.4193 C 317.57425,399.78552 320.41765,399.03414 322.89192,398.74957 C 327.36614,398.23495 332.80672,394.57231 332.80672,392.07484 C 332.80672,391.35531 330.05825,390.64542 326.699,390.49733 C 323.33975,390.34923 320.27542,389.20586 319.88939,387.9565 C 319.50333,386.70713 317.54841,385.68492 315.54512,385.68492 C 313.49541,385.68492 311.90276,384.27137 311.90276,382.45216 C 311.90276,380.67413 309.39111,376.50988 306.32131,373.1983 C 299.04597,365.34989 297.94826,361.07488 301.32965,353.7584 C 305.29872,345.17034 307.88283,325.34386 305.62998,320.7643 C 304.61374,318.69849 302.29407,315.16324 300.47514,312.90819 C 298.65622,310.65313 296.10421,305.118 294.80402,300.60789 C 293.50382,296.09779 291.68817,291.5313 290.76924,290.46015 C 287.86277,287.07224 288.95711,277.7791 292.89916,272.37284 C 298.07532,265.27407 297.68883,261.36328 290.9988,253.14356 C 285.10525,245.90244 283.9866,240.45469 287.10327,234.17241 C 288.09632,232.17072 289.11988,226.67442 289.37781,221.95845 C 289.70036,216.06156 291.48617,211.31847 295.09647,206.76972 C 297.98378,203.13191 300.3809,198.59554 300.42337,196.68891 C 300.46584,194.78228 301.35576,192.65216 302.40096,191.95531 C 303.44616,191.25845 304.32851,188.20581 304.36175,185.17165 C 304.39501,182.1375 305.64265,177.91604 307.13434,175.79063 C 308.62601,173.6652 310.43724,167.66881 311.15928,162.46531 C 313.07696,148.64507 323.3393,139.07729 343.35676,132.4469 C 351.7723,129.65943 360.92356,127.37877 363.69291,127.37877 C 368.90976,127.37877 385.32152,123.10546 393.61824,119.58678 C 397.21709,118.06048 399.98204,118.44917 405.0204,121.18965 C 408.6786,123.17943 418.36878,128.37259 426.55413,132.73003 C 445.23362,142.674 458.23138,157.72441 459.10959,170.4268 C 459.42032,174.92121 461.05997,180.87939 462.75325,183.66721 C 464.44653,186.45503 465.83193,191.58181 465.83193,195.06006 C 465.83193,198.5383 467.23263,204.30613 468.94457,207.87746 C 473.60159,217.5925 474.72231,247.22497 470.81357,257.29471 C 469.11887,261.66064 467.73229,266.56202 467.73229,268.18664 C 467.73229,273.76066 456.10965,297.13712 451.46914,300.8965 C 448.91669,302.96428 446.82833,305.73894 446.82833,307.06239 C 446.82833,311.5988 435.26388,320.30409 431.1216,318.88582 C 428.16972,317.87513 427.51284,318.29965 428.3569,320.67254 C 428.96584,322.38435 428.26722,325.48901 426.80446,327.57178 C 423.32199,332.53029 423.32038,339.45185 426.80095,342.56801 C 428.32826,343.93541 430.16053,347.04656 430.87264,349.48169 C 431.58476,351.9168 435.03853,357.53467 438.54768,361.96585 C 443.13785,367.76208 444.92797,372.02647 444.92797,377.16488 C 444.92797,381.09316 446.32756,387.72933 448.03817,391.9119 C 451.0275,399.22108 451.58827,399.55963 462.46882,400.62397 C 474.67295,401.81776 482.93517,407.5664 482.93517,414.86394 C 482.93517,416.989 483.75392,418.1818 484.75459,417.51463 C 485.75528,416.84746 487.8838,419.03394 489.48465,422.37349 C 493.38344,430.5068 496.80905,431.30736 512.43419,427.73687 C 519.72669,426.07047 529.61921,424.69101 534.41756,424.67144 C 542.05704,424.64027 544.10582,425.65519 550.89423,432.83366 C 555.15805,437.34248 559.19441,443.72207 559.86395,447.01053 C 560.53348,450.29901 563.51686,455.73894 566.49368,459.09926 C 575.59302,469.37084 576.24769,472.19585 575.65628,498.63709 C 575.10691,523.19861 575.14131,523.4243 580.10373,527.82669 C 584.02201,531.3028 585.3881,534.80908 586.41312,544.02073 C 587.65157,555.15042 585.1082,569.30312 581.32449,572.33664 C 580.55458,572.9539 580.46792,579.73493 581.13191,587.40558 C 581.88354,596.08852 582.91593,600.24042 583.86732,598.40645 C 584.70781,596.78628 588.3928,595.33913 592.05618,595.19056 L 598.71687,594.92044 L 597.62542,612.7931 C 597.02511,622.62306 596.27475,630.97113 595.95794,631.34436 C 595.64114,631.71759 593.54527,630.96258 591.30045,629.66656 C 587.72036,627.59964 586.00777,628.43936 577.36007,636.50179 C 566.54594,646.58401 555.98676,658.04819 548.74751,667.56663 C 546.1749,670.94921 543.47403,673.07544 542.7456,672.2916 C 540.03991,669.38004 570.96137,633.65968 583.8337,624.8268 C 588.1053,621.89566 589.35533,619.5052 589.35533,614.2677 C 589.35533,608.13729 588.68188,607.32408 582.22898,605.66239 L 575.10263,603.82729 L 574.98399,585.47076 C 574.91873,575.37468 574.19202,563.83121 573.36905,559.81861 C 572.5163,555.66082 572.70578,549.26832 573.80959,544.95575 C 575.94835,536.59967 573.76223,535.05613 566.61165,539.8735 C 561.29994,543.452 560.07802,540.82449 562.39409,530.80441 C 563.51171,525.96923 565.42258,511.94326 566.64048,499.63561 C 568.79194,477.8938 568.74152,477.16576 564.86612,474.01 C 559.89145,469.95908 553.63637,457.53979 550.09921,444.69065 C 548.19511,437.77379 546.40942,434.88609 544.03629,434.88609 C 542.18615,434.88609 539.01242,433.53164 536.98356,431.87621 C 531.94718,427.76684 527.82314,428.00338 518.90157,432.91333 C 504.63924,440.76256 502.8681,441.05672 495.50453,436.79922 C 491.73456,434.61946 486.9203,432.83604 484.80621,432.83604 C 481.57704,432.83604 481.16213,433.73753 482.21153,438.47368 C 484.02371,446.65259 484.52033,447.18638 490.3175,447.18638 C 493.46968,447.18638 497.36394,449.24041 500.04192,452.31554 L 504.50866,457.4447 L 513.82771,446.1654 C 518.95317,439.96179 523.96358,434.88609 524.96195,434.88609 C 527.74587,434.88609 524.04746,440.77459 513.42844,453.24936 L 503.90469,464.43746 L 498.22165,458.16685 C 494.24737,453.78168 490.95199,452.0163 487.26179,452.29549 C 484.35955,452.5151 479.696,452.83917 476.89833,453.01566 C 474.10068,453.19212 471.53519,454.69602 471.19725,456.35763 C 470.739,458.61079 469.85826,458.83166 467.73229,457.22658 C 465.58804,455.60768 465.47033,454.81681 467.2572,454.03465 C 470.67108,452.54031 470.23875,450.19069 464.85792,440.9955 C 458.91065,430.83234 461.73287,430.32067 469.27726,440.19426 C 475.52489,448.37074 479.01697,446.63693 474.68591,437.50886 C 473.199,434.37505 471.39126,427.65967 470.66872,422.5858 C 468.31327,406.04522 468.16948,405.80736 462.47314,409.02706 C 457.65627,411.74967 457.45662,412.56538 457.20311,430.55959 C 457.05819,440.84607 456.3284,449.92164 455.58137,450.72753 C 452.92103,453.59742 450.68649,445.9745 450.63724,433.86107 C 450.55596,413.87467 448.87028,406.49818 444.22075,405.78265 C 440.84432,405.26307 440.0815,403.55355 439.59786,395.42265 C 439.27928,390.0669 438.21033,385.68492 437.22241,385.68492 C 436.23447,385.68492 435.41925,386.37681 435.41079,387.22246 C 435.18176,410.13241 433.63599,439.18537 432.54475,441.09013 C 429.97774,445.57082 429.09095,482.03721 431.54901,482.03721 C 432.75962,482.03721 433.21297,482.97478 432.55647,484.1207 C 431.89997,485.26661 430.63388,485.71818 429.74293,485.12418 C 427.61367,483.70458 422.12365,495.69681 422.12365,501.76752 C 422.12365,505.16189 418.54242,509.60635 409.57542,517.34043 C 402.67388,523.29301 395.89708,527.90822 394.51584,527.59643 C 393.13458,527.28464 391.49172,527.92456 390.86502,529.01847 C 389.68402,531.07987 402.59583,539.97366 410.44954,542.50849 C 415.92174,544.27467 422.24255,549.87279 421.07183,551.91628 C 420.60041,552.73913 417.00978,551.77346 413.09264,549.77035 C 409.1755,547.76725 402.65805,544.46395 398.60937,542.42966 C 390.45988,538.33487 374.61464,522.07358 374.61464,517.80487 C 374.61464,512.76765 377.84039,512.87103 379.99709,517.97736 C 382.70955,524.39946 385.44383,524.37693 390.17128,517.89353 C 392.2345,515.06397 394.64033,513.22741 395.51758,513.81227 C 396.3948,514.39715 398.26348,513.71405 399.67021,512.29427 C 401.07691,510.87451 405.50247,507.90625 409.50478,505.69814 C 416.58115,501.79407 416.74481,501.45507 415.44301,493.39785 C 413.9361,484.07125 413.9307,484.70966 415.63395,470.76194 C 417.48069,455.63933 413.33125,461.39388 409.25927,479.60253 C 407.45049,487.69086 404.99312,494.31508 403.79845,494.32303 C 399.54467,494.35136 399.6131,488.35198 403.97777,478.60408 C 406.41388,473.16337 408.88752,463.86866 409.47474,457.94914 C 410.44681,448.15021 410.20003,447.18638 406.71908,447.18638 C 404.61624,447.18638 403.40117,446.30414 404.01893,445.22586 C 404.63668,444.14758 406.3319,443.75788 407.78606,444.35984 C 410.96456,445.67562 412.88109,442.07934 418.31806,424.59692 C 420.59068,417.28939 423.55967,409.92675 424.91583,408.23546 C 426.27198,406.54417 428.7879,399.85588 430.50676,393.3726 C 432.49123,385.88753 434.65308,381.58482 436.42942,381.58482 C 439.34252,381.58482 440.134,379.14666 437.97647,376.81915 C 437.28873,376.07726 435.5784,376.49773 434.17575,377.75353 C 432.57232,379.18907 431.62545,379.2639 431.62545,377.95507 C 431.62545,376.81011 430.31669,375.33156 428.7171,374.66939 C 426.77419,373.8651 425.05223,375.32346 423.52978,379.06267 C 422.27636,382.14114 420.80343,385.12116 420.25662,385.68492 C 419.08698,386.89082 411.80701,398.92844 403.48995,413.40906 C 400.23663,419.07337 394.03442,426.9148 389.70727,430.83448 C 385.38013,434.75415 380.36257,439.41543 378.55711,441.19284 C 376.75167,442.97027 373.67742,445.08564 371.72549,445.89368 C 368.35189,447.29022 368.35906,447.13895 371.87066,442.83329 C 373.90245,440.34205 380.14254,433.61408 385.73751,427.88222 C 394.15648,419.2573 410.72149,395.94064 410.72149,392.71513 C 410.72149,392.23109 409.01116,391.83507 406.92077,391.83507 C 401.79815,391.83507 402.12523,390.42334 408.61195,384.53517 C 413.7156,379.90249 418.50069,370.0297 422.21545,356.46785 C 423.47866,351.85618 423.03838,350.4093 419.8035,348.54168 C 416.43473,346.59676 416.02718,346.7656 417.06283,349.67704 C 417.73193,351.55806 417.52987,352.59736 416.61376,351.98659 C 415.69767,351.37581 411.64544,355.23768 407.60883,360.56852 C 403.5722,365.89934 398.75995,371.90035 396.91493,373.90405 C 394.51487,376.51054 393.92865,379.14243 394.85469,383.15358 C 396.00662,388.14307 395.81073,388.45937 393.07448,386.02806 C 388.68692,382.12946 383.0474,384.75475 376.99963,393.51119 C 369.82414,403.90042 368.95015,404.43042 360.73436,403.37469 C 355.76761,402.73645 353.74668,403.19129 354.27655,404.82809 C 354.75765,406.31421 359.22473,407.11115 366.15086,406.94651 C 376.24145,406.70663 376.91697,406.95254 373.55884,409.6432 C 371.49277,411.29862 367.14091,412.2743 363.68757,411.85631 C 359.53323,411.35352 357.5114,411.98071 357.5114,413.77223 C 357.5114,415.23711 356.71572,416.43565 355.74321,416.43565 C 352.37876,416.43565 352.58449,425.69283 356.12349,433.54722 C 358.07786,437.8847 359.14317,442.00933 358.49083,442.71307 C 357.37845,443.91305 354.67789,440.53592 353.05156,435.91111 C 352.65507,434.78359 351.75398,434.43375 351.04915,435.13367 C 350.34433,435.83362 350.74958,438.73112 351.94969,441.57255 C 353.28255,444.72831 353.48082,447.99355 352.45911,449.96303 C 351.1111,452.56151 349.51471,451.1767 344.23323,442.82747 C 338.09679,433.12664 337.68645,431.44174 337.782,416.33842 C 337.83812,407.46732 337.23162,400.64415 336.43421,401.17578 C 334.2966,402.60096 330.99009,414.77523 331.45446,419.51072 C 331.69459,421.95934 330.85458,423.38815 329.36897,423.05799 C 327.43716,422.62866 326.96319,426.88036 327.24756,442.08857 C 327.44894,452.85944 327.07182,462.25658 326.4095,462.97106 C 325.74717,463.68554 325.20528,462.27132 325.20528,459.82836 C 325.20528,457.38538 324.35012,455.38658 323.30492,455.38658 C 322.25972,455.38658 321.40456,458.87139 321.40456,463.13062 C 321.40456,467.38986 320.13065,472.8367 318.57363,475.23474 C 316.46957,478.47534 315.69803,486.0065 315.56869,504.56668 C 315.47297,518.30118 315.75,529.92186 316.18431,530.3904 C 317.21092,531.49788 334.70708,512.90453 334.70708,510.70606 C 334.70708,509.78397 333.63813,508.4999 332.33163,507.85258 C 331.02513,507.20527 331.75957,507.14922 333.9637,507.72803 C 340.3357,509.40135 342.1937,504.95038 339.76738,493.82499 C 337.68458,484.27484 336.04775,482.13865 333.80819,486.04778 C 333.19044,487.12607 331.48479,487.51146 330.01787,486.90419 C 327.92451,486.03762 327.66418,487.04915 328.80772,491.60635 C 330.17765,497.06569 326.55973,507.66785 321.28778,513.64327 C 318.32011,517.0069 317.36898,509.68587 319.55665,500.31867 C 320.71994,495.33774 321.92243,489.87865 322.22888,488.18736 C 322.53533,486.49607 323.67429,482.80598 324.75989,479.98716 L 326.73374,474.86204 L 328.62435,479.98716 L 330.51494,485.11229 L 332.43851,479.98716 C 333.49648,477.16835 337.30364,470.44831 340.89887,465.05377 C 346.56269,456.55539 347.75887,455.66559 349.85569,458.39111 C 353.28109,462.84355 356.08986,462.2936 354.66466,457.44952 C 353.80488,454.52724 354.19362,453.66513 356.02859,454.42474 C 357.44014,455.00906 360.48912,453.58354 362.80411,451.2569 C 365.11911,448.93028 367.0132,447.91817 367.0132,449.00777 C 367.0132,450.09739 364.8753,452.80302 362.2623,455.02032 C 356.52941,459.88502 356.48101,460.50192 361.31212,467.12747 C 363.40252,469.9943 365.14129,474.29116 365.17607,476.67605 C 365.23804,480.92596 365.3136,480.91596 368.97679,476.17247 C 371.03241,473.51061 372.71428,470.12981 372.71428,468.65956 C 372.71428,465.42011 392.68042,436.64028 396.54738,434.30576 C 400.47073,431.9372 414.3003,409.54644 421.51302,393.88511 C 428.07666,379.63322 429.91461,379.91286 424.60886,394.35613 C 420.63232,405.18109 409.88793,423.6107 402.77281,431.81102 C 399.83788,435.1936 397.43259,439.04125 397.42776,440.36134 C 397.42292,441.68145 393.99832,446.48869 389.81752,451.04408 C 385.63673,455.5995 382.21608,459.96747 382.21608,460.7507 C 382.21608,461.53392 380.08236,465.19256 377.47448,468.88098 C 374.86657,472.56943 372.42957,477.26911 372.05889,479.32473 C 371.6882,481.38036 370.89381,484.44602 370.29359,486.13731 C 369.69336,487.8286 368.17069,492.90247 366.90988,497.41258 C 365.64909,501.92269 363.98532,506.5353 363.21262,507.66282 C 361.71013,509.85523 360.10387,518.41029 358.40423,533.27242 C 357.82498,538.33748 356.53198,543.36522 355.53087,544.44519 C 354.52978,545.52513 353.71068,548.87914 353.71068,551.89853 C 353.71068,554.9179 352.46184,560.61261 350.93549,564.55344 C 349.40914,568.49427 348.69651,572.29703 349.35186,573.00399 C 350.00722,573.71097 349.68825,574.28941 348.64305,574.28941 C 347.59785,574.28941 346.66135,575.44256 346.56195,576.85197 C 346.29639,580.61654 338.64628,604.69817 334.49645,614.83271 C 332.5219,619.65486 330.90636,625.36619 330.90636,627.52452 C 330.90636,629.68288 330.0512,632.01895 329.006,632.7158 C 327.9608,633.41265 327.10564,635.7421 327.10564,637.89236 C 327.10564,641.70326 323.74955,651.39209 318.36706,663.12016 C 316.9021,666.31223 315.69822,670.46357 315.69177,672.34538 C 315.68533,674.22718 314.40259,678.40921 312.84123,681.6388 C 311.27988,684.86839 310.0024,689.19592 310.0024,691.25554 C 310.0024,693.31516 309.25769,695.49682 308.34749,696.10366 C 307.43729,696.71051 306.17593,699.99379 305.54446,703.39982 C 304.51923,708.92973 303.65556,709.59263 297.47603,709.59263 C 290.86144,709.59263 290.61624,709.34357 291.92547,703.955 C 292.67885,700.8543 293.41992,694.62727 293.57229,690.11717 C 293.72466,685.60706 294.34733,681.45571 294.956,680.89195 C 297.38758,678.63972 302.87706,625.26371 303.26851,600.06666 C 303.49753,585.32542 304.20066,571.8806 304.83103,570.18931 C 306.73466,565.08194 308.46267,542.13222 310.92826,489.21238 C 311.94649,467.35751 311.7655,465.06689 309.30656,468.68928 C 307.78424,470.93191 306.98005,473.53714 307.51947,474.47868 C 308.874,476.843 300.93099,485.60538 294.10161,489.28069 C 288.86234,492.10027 288.19172,492.01066 284.75553,488.03182 C 280.83383,483.4908 278.90445,484.36873 276.87836,491.61611 C 275.85804,495.26583 277.19177,497.2266 284.26622,502.47735 C 289.01433,506.00146 292.91225,510.45491 292.92825,512.37392 C 292.95353,515.40444 293.22686,515.45885 295.00789,512.78794 C 296.71326,510.23049 296.86829,510.34496 295.92896,513.46813 C 295.30777,515.53351 294.79952,518.58616 294.79952,520.25176 C 294.79952,521.91739 293.99692,522.74505 293.01596,522.09103 C 292.03499,521.43702 290.38483,522.53572 289.34891,524.53261 C 288.313,526.5295 286.7639,527.953 285.90648,527.69594 C 285.04906,527.43891 281.35447,528.12565 277.69628,529.22206 C 269.30313,531.73759 260.59304,531.81217 260.59304,529.36853 C 260.59304,528.34011 264.22748,526.84435 268.66957,526.04461 C 277.8244,524.39641 290.9988,518.73653 290.9988,516.45169 C 290.9988,513.62092 281.67877,508.32468 279.38659,509.85291 C 277.94029,510.81719 277.60721,510.50183 278.474,508.98888 C 279.95271,506.4078 276.68479,502.03363 271.7838,500.03394 C 268.11947,498.53881 265.65336,490.26324 268.84748,490.18046 C 270.05613,490.14913 273.24453,487.6122 275.9328,484.54282 C 281.27477,478.44358 291.78718,459.65382 290.58386,458.35571 C 290.17136,457.9107 287.05012,460.28943 283.64777,463.64176 C 280.24544,466.9941 276.86719,469.73692 276.14057,469.73692 C 275.41393,469.73692 272.07249,472.96575 268.71512,476.91209 C 265.35775,480.85843 261.91928,484.08726 261.07408,484.08726 C 257.49553,484.08726 252.85259,475.48438 254.08632,471.13965 C 255.31359,466.81765 255.21749,466.83325 251.32418,471.58813 C 249.10567,474.2976 247.29052,477.75706 247.29052,479.27582 C 247.29052,480.79458 246.07946,482.03721 244.59927,482.03721 C 243.11908,482.03721 240.77242,484.80478 239.38447,488.18736 C 236.55149,495.09162 234.47536,495.84015 231.27094,491.11266 C 229.56196,488.5914 229.01213,492.28141 228.75083,508.02556 C 228.56703,519.10132 227.87074,532.0761 227.20354,536.85837 C 226.23312,543.81412 226.61146,545.8105 229.09491,546.83856 C 231.79734,547.95727 231.83778,548.42413 229.4072,550.44379 C 226.37312,552.96494 222.3076,578.87147 222.28712,595.81492 C 222.26502,614.09326 224.92539,630.45294 229.53804,640.40348 C 232.02073,645.75924 233.58809,650.14121 233.02104,650.14121 C 232.45399,650.14121 233.39123,653.06424 235.10379,656.63684 C 237.26218,661.1395 237.87678,665.81431 237.10694,671.87337 C 236.49611,676.68088 236.9171,683.46361 238.04245,686.94609 C 239.6094,691.79507 239.50286,694.0392 237.58756,696.52878 C 236.21201,698.31677 234.17433,701.75695 233.05937,704.17363 C 231.16486,708.28 229.4808,708.59288 207.33032,708.95363 C 194.29428,709.16595 184.9112,708.79701 186.479,708.13373 C 188.04679,707.47046 189.75712,706.36225 190.27972,705.67103 C 190.80231,704.97979 193.69734,703.5037 196.7131,702.39083 C 199.72886,701.27794 203.472,698.28462 205.03117,695.73899 C 207.72675,691.33793 207.57408,691.00078 201.92339,688.87578 C 198.65496,687.64665 195.9808,685.8709 195.9808,684.92964 C 195.9808,683.9884 194.36281,682.66432 192.38526,681.98723 C 190.4077,681.31014 188.30372,678.75133 187.70973,676.30097 C 186.2886,670.43846 184.1661,672.96484 183.45754,681.36233 C 182.67706,690.61201 184.11094,694.80585 188.57661,696.33486 C 191.59602,697.36866 191.92324,698.2311 190.16379,700.51809 C 188.27252,702.97645 187.14285,702.88633 182.4623,699.90367 C 179.4455,697.98124 176.97719,694.76219 176.97719,692.75023 C 176.97719,690.73829 176.12203,689.09214 175.07683,689.09214 C 174.03164,689.09214 173.17647,687.70836 173.17647,686.01707 C 173.17647,684.32578 172.32131,682.942 171.27611,682.942 C 168.78501,682.942 168.85304,685.65819 171.41332,688.42014 C 172.86316,689.98418 172.17797,693.33847 169.03787,700.04912 C 164.73371,709.24742 164.40221,709.48142 155.59814,709.53634 C 147.82094,709.58484 146.57143,709.02507 146.57143,705.49253 z M 224.4862,680.89195 C 224.4862,679.76442 223.63103,678.8419 222.58584,678.8419 C 221.54064,678.8419 220.68548,679.76442 220.68548,680.89195 C 220.68548,682.01947 221.54064,682.942 222.58584,682.942 C 223.63103,682.942 224.4862,682.01947 224.4862,680.89195 z M 214.29702,677.82624 C 215.86004,676.1401 216.86792,672.21938 216.53672,669.11354 C 216.05915,664.63471 215.05005,663.56756 211.65877,663.95487 C 209.30707,664.22347 207.38296,663.72789 207.38296,662.85359 C 207.38296,661.9793 205.69211,661.12659 203.62553,660.95865 C 198.0878,660.50864 191.14027,654.14879 188.48828,647.10181 C 184.3127,636.00631 182.06366,631.69078 180.45679,631.69078 C 179.58821,631.69078 178.87755,632.6133 178.87755,633.74082 C 178.87755,634.86835 179.64226,635.79087 180.57688,635.79087 C 181.51151,635.79087 182.33406,637.86655 182.40478,640.40348 C 182.78509,654.04873 185.13151,660.18455 192.36853,666.45848 C 196.44568,669.99305 199.78152,674.14839 199.78152,675.69259 C 199.78152,681.10452 209.88185,682.58916 214.29702,677.82624 z M 220.2318,654.68449 C 221.14407,651.73213 215.38374,639.89097 213.03524,639.89097 C 212.01687,639.89097 211.18368,638.50719 211.18368,636.8159 C 211.18368,635.12461 210.32851,633.74082 209.28332,633.74082 C 208.23812,633.74082 207.38296,634.7178 207.38296,635.91187 C 207.38296,641.01878 203.43557,634.82272 201.03794,625.95232 C 199.60528,620.65202 197.42258,616.31541 196.18746,616.31541 C 192.55192,616.31541 190.33996,610.76847 190.30881,601.57355 C 190.27774,592.39925 188.15036,589.12221 184.9371,593.29892 C 183.03951,595.76549 185.7435,612.72721 188.44292,615.29039 C 190.22181,616.9795 194.17393,638.06924 193.07201,639.99263 C 191.25874,643.15766 198.44779,654.63521 203.61618,656.82673 C 207.93997,658.66011 219.4624,657.17454 220.2318,654.68449 z M 211.54737,619.45941 C 211.2248,617.89737 210.93834,611.93837 210.91082,606.21714 C 210.87434,598.63601 209.80859,594.59227 206.98109,591.30662 C 204.73218,588.69334 203.59271,585.41714 204.27022,583.51246 C 204.91308,581.70524 204.70048,580.71902 203.79777,581.32087 C 202.89507,581.92272 201.06848,578.04992 199.73866,572.71464 C 198.40887,567.37937 196.59174,562.13774 195.70064,561.06659 C 191.58038,556.11386 196.05626,590.97271 200.23863,596.40909 C 201.52956,598.08709 202.33191,601.54995 202.02162,604.10431 C 201.71131,606.6587 202.33509,609.33378 203.40778,610.04894 C 204.48046,610.76412 204.87418,613.95947 204.28273,617.14972 C 203.33591,622.25664 203.74099,622.91126 207.67059,622.6248 C 210.39258,622.42638 211.90503,621.19143 211.54737,619.45941 z M 334.70708,602.8691 C 334.70708,600.5475 333.85192,599.21817 332.80672,599.91502 C 331.76152,600.61187 330.90636,602.51136 330.90636,604.13611 C 330.90636,605.76086 331.76152,607.09019 332.80672,607.09019 C 333.85192,607.09019 334.70708,605.1907 334.70708,602.8691 z M 329.2346,594.21648 C 326.34656,591.10096 325.14578,593.07663 326.50914,598.70073 C 327.53379,602.92767 327.86485,603.06695 329.48122,599.95116 C 330.68235,597.63584 330.59856,595.68788 329.2346,594.21648 z M 333.7569,582.4896 C 334.40287,581.36208 334.02576,580.43956 332.91888,580.43956 C 331.812,580.43956 330.90636,581.36208 330.90636,582.4896 C 330.90636,583.61713 331.28347,584.53965 331.74438,584.53965 C 332.2053,584.53965 333.11093,583.61713 333.7569,582.4896 z M 209.45342,559.30255 C 206.08562,555.66947 205.46907,558.7296 207.8563,567.22951 L 210.12698,575.31443 L 210.79376,568.39109 C 211.16049,564.58327 210.55734,560.49342 209.45342,559.30255 z M 342.30852,568.13926 C 342.30852,567.01174 341.40289,566.08921 340.296,566.08921 C 339.18912,566.08921 338.81201,567.01174 339.45798,568.13926 C 340.10395,569.26679 341.00959,570.18931 341.4705,570.18931 C 341.93141,570.18931 342.30852,569.26679 342.30852,568.13926 z M 345.06404,551.92903 C 341.94151,548.71216 329.006,543.65756 329.006,545.65427 C 329.006,546.70278 331.14391,548.1395 333.7569,548.84699 C 336.3699,549.55446 338.5078,550.95582 338.5078,551.96112 C 338.5078,552.9664 340.38916,553.78892 342.68859,553.78892 C 345.25053,553.78892 346.17034,553.06874 345.06404,551.92903 z M 334.09133,521.69057 C 333.00356,520.51714 324.51724,529.95091 321.70132,535.46386 C 320.24916,538.30685 322.51927,536.57483 326.96386,531.44866 C 331.26285,526.49045 334.4702,522.09931 334.09133,521.69057 z M 209.28332,525.32258 C 209.28332,522.06888 208.00584,516.76438 206.44448,513.5348 L 203.60565,507.66282 L 203.59394,515.22951 C 203.5875,519.39119 204.4957,523.40523 205.61214,524.14958 C 206.72861,524.89395 207.18302,526.79343 206.62198,528.37067 C 206.06093,529.94792 206.43021,531.23838 207.44261,531.23838 C 208.45499,531.23838 209.28332,528.57627 209.28332,525.32258 z M 359.41176,507.54183 C 359.41176,505.91708 358.5566,504.58775 357.5114,504.58775 C 356.4662,504.58775 355.61104,506.48724 355.61104,508.80884 C 355.61104,511.13044 356.4662,512.45977 357.5114,511.76292 C 358.5566,511.06607 359.41176,509.16657 359.41176,507.54183 z M 218.31183,499.19743 C 218.66927,496.31804 218.19034,492.89347 217.24754,491.58728 C 213.9723,487.04966 213.42131,479.78632 215.26411,465.44092 C 217.52183,447.86573 216.44197,443.58929 212.33049,453.82321 C 208.95404,462.22751 209.52527,484.51867 213.48716,498.9603 C 215.77985,507.31747 217.29457,507.39193 218.31183,499.19743 z M 349.90996,501.92137 C 349.90996,498.14986 345.44043,488.2225 343.73379,488.20335 C 341.60263,488.17945 342.01024,492.82721 344.68397,499.03792 C 347.19967,504.88154 349.90996,506.37695 349.90996,501.92137 z M 240.31034,473.82281 C 243.62683,470.43242 247.71407,466.25918 249.39308,464.54896 C 251.0721,462.83875 253.68599,461.95286 255.20172,462.58032 C 258.29189,463.85953 275.14487,445.80071 273.01009,443.49777 C 272.29511,442.72648 270.88814,443.67992 269.8835,445.61654 C 268.45523,448.36973 266.3105,448.91193 260.04914,448.10269 C 254.79551,447.4237 250.89632,448.04826 248.71195,449.91865 C 245.33995,452.806 231.36812,479.98716 233.25598,479.98716 C 233.81938,479.98716 236.99385,477.2132 240.31034,473.82281 z M 294.79952,451.04451 C 294.79952,449.91699 293.94436,449.5646 292.89916,450.26146 C 291.85396,450.95831 290.9988,452.45097 290.9988,453.5785 C 290.9988,454.70602 291.85396,455.05841 292.89916,454.36155 C 293.94436,453.6647 294.79952,452.17204 294.79952,451.04451 z M 224.4862,432.37652 C 229.00862,422.43034 233.63734,418.92962 232.51037,426.30783 C 232.11622,428.88822 232.95675,428.53777 235.836,424.92125 C 240.32454,419.28333 240.86952,415.50833 236.96132,417.12617 C 235.46104,417.74723 233.86803,417.15405 233.42127,415.80797 C 231.98869,411.49151 222.95665,422.54293 219.83202,432.43552 C 214.46651,449.4228 216.7486,449.39388 224.4862,432.37652 z M 304.30132,436.39788 C 304.30132,435.40533 303.01858,435.977 301.45078,437.66829 C 299.88298,439.35958 298.62743,441.96243 298.66067,443.45236 C 298.72745,446.44502 304.30132,439.47404 304.30132,436.39788 z M 424.77087,431.64334 C 425.4053,429.85984 425.92437,426.74397 425.92437,424.7192 C 425.92437,422.69441 427.20711,419.88935 428.77491,418.4857 C 432.55772,415.09894 432.37862,413.02605 428.29982,412.9873 C 423.95242,412.946 422.03119,416.34955 423.30689,421.83261 C 423.87068,424.25591 423.40751,426.85494 422.27763,427.60825 C 419.80369,429.25768 419.52735,434.88609 421.92033,434.88609 C 422.85371,434.88609 424.13645,433.42687 424.77087,431.64334 z M 299.19296,422.9773 C 304.14376,417.555 307.644,412.52477 306.97125,411.79904 C 305.34329,410.04284 287.20021,426.99506 287.19901,430.27348 C 287.19738,434.76754 289.96536,433.08371 299.19296,422.9773 z M 256.79232,422.5858 C 261.5474,418.13688 260.61843,417.22963 254.76703,420.60787 C 252.74535,421.77506 251.09124,423.62011 251.09124,424.70797 C 251.09124,427.50186 251.83306,427.22571 256.79232,422.5858 z M 351.20812,411.95117 C 350.60148,410.31578 350.15118,410.80154 350.06,413.18975 C 349.97748,415.35083 350.42661,416.56165 351.0581,415.88044 C 351.68957,415.19921 351.75707,413.43106 351.20812,411.95117 z M 349.90996,407.33143 C 349.90996,406.83421 349.0548,405.85724 348.0096,405.16038 C 346.9644,404.46353 346.10924,404.87034 346.10924,406.06441 C 346.10924,407.25848 346.9644,408.23546 348.0096,408.23546 C 349.0548,408.23546 349.90996,407.82864 349.90996,407.33143 z M 365.5844,383.79479 C 369.84807,381.21266 370.69888,379.55669 369.80031,375.58919 C 368.83495,371.32668 369.08469,370.98574 371.55341,373.196 C 374.72302,376.03374 382.21608,374.41236 382.21608,370.88875 C 382.21608,367.8531 392.10695,346.34887 395.04351,342.99997 C 396.35001,341.51004 397.41896,339.58812 397.41896,338.72904 C 397.41896,337.86997 398.65036,337.16709 400.15543,337.16709 C 402.53711,337.16709 402.53711,337.71347 400.15543,341.38166 C 398.65036,343.69967 397.41896,347.27795 397.41896,349.33337 C 397.41896,351.38879 395.22924,355.43272 392.55288,358.31988 C 384.66253,366.83175 388.31016,365.73553 397.26718,356.90309 C 401.79565,352.43762 406.58123,348.78404 407.90183,348.78404 C 410.41302,348.78404 418.32293,332.55436 418.32293,327.40187 C 418.32293,325.76482 419.10091,323.90672 420.0518,323.27276 C 421.00268,322.63878 422.84447,315.69863 424.14464,307.85018 C 425.44483,300.00174 427.20432,294.04411 428.05461,294.61101 C 428.90489,295.17791 429.11488,298.26165 428.52121,301.46377 C 427.04554,309.42331 430.35211,310.94768 438.81702,306.21029 C 443.46952,303.60652 445.95217,300.74281 446.09513,297.81505 C 446.21447,295.37117 447.99557,291.77093 450.05314,289.81457 C 456.95413,283.25302 460.58068,275.12165 460.46985,266.45849 C 460.40999,261.78009 459.24028,257.13298 457.87048,256.13157 C 456.08135,254.8236 456.45034,254.47925 459.18067,254.90882 C 461.53854,255.27982 462.98139,254.33946 462.98139,252.43175 C 462.98139,250.64033 461.59314,249.60813 459.65576,249.95906 C 457.82666,250.29037 456.33013,249.59848 456.33013,248.42152 C 456.33013,247.24457 458.46803,246.2816 461.08103,246.2816 C 464.70899,246.2816 465.83193,245.21557 465.83193,241.77149 C 465.83193,238.26363 465.32516,237.80807 463.5515,239.72144 C 458.6395,245.02037 456.74912,242.3274 457.00373,230.39372 C 457.14206,223.91044 456.52429,216.98107 455.63091,214.99511 C 454.35581,212.16057 454.66492,211.65679 457.06872,212.65188 C 461.38908,214.44034 461.03567,207.82738 456.40595,200.25073 C 453.94747,196.22738 453.31733,193.40131 454.52784,191.82783 C 455.74826,190.24149 454.96637,187.5033 452.15908,183.53241 C 448.16409,177.8815 448.15484,177.77856 451.96069,181.32609 C 454.59145,183.7783 456.38347,184.29548 457.21573,182.8428 C 458.57865,180.46384 433.48955,151.97936 430.03125,151.97936 C 428.88125,151.97936 424.82896,150.09415 421.02617,147.79002 C 414.68761,143.94942 413.92293,143.87963 411.84061,146.95167 C 410.18228,149.39822 407.80128,149.98939 403.019,149.14196 C 399.41638,148.50358 391.2664,147.38538 384.90793,146.6571 C 374.1196,145.42143 373.00846,145.69823 368.27977,150.79939 C 365.49276,153.80593 363.21248,158.07796 363.21248,160.2928 C 363.21248,162.50765 361.50216,165.89956 359.41176,167.83039 C 357.32137,169.76123 355.61104,173.70292 355.61104,176.5897 C 355.61104,181.35963 354.85489,181.87388 347.32125,182.22758 C 342.76185,182.44165 336.71126,183.56841 333.87548,184.73151 C 329.92893,186.35017 327.77913,186.13565 324.71047,183.81698 C 320.77537,180.84363 320.82947,180.73004 327.64322,177.65882 C 331.46121,175.93791 336.69991,174.52989 339.28478,174.52989 C 341.86967,174.52989 344.51309,173.60737 345.15906,172.47984 C 345.80503,171.35232 345.6099,170.42979 344.72544,170.42979 C 343.84097,170.42979 342.98849,168.58475 342.83103,166.3297 C 342.64196,163.62185 343.71621,162.2296 345.99465,162.2296 C 347.89212,162.2296 350.50917,160.84582 351.81032,159.15453 C 353.30214,157.21541 353.42952,156.07945 352.15516,156.07945 C 351.04368,156.07945 349.60575,157.00197 348.95978,158.1295 C 348.31381,159.25703 346.33922,160.10671 344.57181,160.0177 C 342.59322,159.91805 342.27118,159.45851 343.73379,158.82184 C 345.04029,158.25314 346.10924,156.35016 346.10924,154.59302 C 346.10924,149.3409 356.72825,140.02316 364.50412,138.45227 C 368.49712,137.64562 374.51592,135.7466 377.87923,134.23225 C 381.24257,132.7179 386.15975,131.47887 388.8063,131.47887 C 391.45288,131.47887 393.61824,130.45368 393.61824,129.20067 C 393.61824,123.64413 346.9622,138.9959 344.72363,145.28902 C 343.86648,147.69871 343.39281,147.73438 342.07316,145.48859 C 341.07523,143.79031 340.45533,143.64097 340.43726,145.09445 C 340.42126,146.38164 338.48405,147.99882 336.13235,148.68821 C 325.85469,151.70108 313.80312,169.80121 313.80312,182.22424 C 313.80312,185.55155 311.69815,191.40852 309.12542,195.23973 C 302.56928,205.00284 294.79952,220.953 294.79952,224.64873 C 294.79952,227.14784 296.55857,227.52669 303.82623,226.59279 C 308.79092,225.95481 313.89451,225.09023 315.16754,224.67148 C 316.44055,224.25274 317.95645,224.73809 318.53621,225.75001 C 319.11596,226.76196 323.57367,229.71987 328.44224,232.32315 C 333.31083,234.92642 338.6131,239.5205 340.22508,242.53218 C 343.76659,249.14882 349.60174,249.25431 352.34835,242.75133 C 353.43317,240.18287 355.03865,238.08141 355.91609,238.08141 C 358.41367,238.08141 357.78393,232.41226 355.13595,231.05849 C 353.82946,230.39054 356.75958,230.28673 361.64737,230.82776 C 367.1971,231.44208 370.79629,230.96333 371.23212,229.55283 C 372.46746,225.55487 389.4702,227.35992 397.77815,232.37104 C 404.44406,236.39171 404.95648,237.15115 401.3902,237.72451 C 397.46606,238.35541 397.58382,238.72779 403.50285,244.40451 C 407.53437,248.27101 411.46669,250.22729 414.52221,249.88653 C 418.28593,249.46676 419.1816,250.20863 418.8327,253.45677 C 418.5905,255.71182 418.19528,259.56604 417.95446,262.02169 C 417.71367,264.47732 416.84289,266.03731 416.01942,265.48828 C 415.19596,264.93926 414.52221,265.46702 414.52221,266.66109 C 414.52221,267.85517 413.66704,268.83214 412.62185,268.83214 C 409.90699,268.83214 410.26884,257.89945 413.09694,254.47817 C 415.1131,252.0391 414.97656,252.00864 412.19413,254.27677 C 409.34764,256.5971 408.61915,256.24656 406.6631,251.61534 C 404.59809,246.72613 403.57199,245.93715 399.96524,246.46528 C 399.27531,246.56631 397.94001,245.16313 396.9979,243.3471 C 396.05582,241.53106 394.36607,240.65789 393.24294,241.40671 C 391.97192,242.25412 392.82135,244.0868 395.49257,246.26042 C 401.63997,251.26267 401.95636,264.6134 396.00496,267.88141 C 393.65946,269.16935 392.30546,270.83268 392.99605,271.57769 C 393.68666,272.32269 393.35871,272.93223 392.2673,272.93223 C 391.17588,272.93223 389.21832,271.54845 387.91716,269.85716 C 386.61601,268.16587 383.15173,266.78209 380.21877,266.78209 C 377.28581,266.78209 373.75608,265.57732 372.37494,264.10483 C 368.79069,260.28354 363.21248,258.31237 363.21248,260.86712 C 363.21248,263.77559 358.52454,261.94912 358.22404,258.92357 C 358.09339,257.60812 357.78494,255.83995 357.5386,254.99431 C 357.29225,254.14866 357.21153,251.15047 357.35922,248.33165 C 357.60642,243.6134 357.41791,243.49134 354.98463,246.79411 C 353.53091,248.76728 351.36682,250.3817 350.17556,250.3817 C 346.40509,250.3817 347.82601,255.77468 353.09367,261.45729 C 357.98839,266.73754 358.0492,267.0725 354.72635,270.44954 C 352.82806,272.37878 351.85795,272.83115 352.57052,271.45481 C 353.40022,269.85224 351.98381,268.44269 348.63169,267.53509 C 344.68798,266.46732 344.16536,265.82062 346.51225,264.91244 C 349.24622,263.85448 349.29662,263.22134 346.92417,259.7366 C 344.30671,255.89196 343.99851,255.88069 337.19579,259.3802 L 330.17049,262.99421 L 336.32167,267.19562 C 342.42536,271.36462 342.44191,271.42041 338.46706,274.42379 C 336.26389,276.08851 333.87524,276.76888 333.15892,275.93574 C 332.44261,275.10262 332.96118,273.99629 334.31131,273.47724 C 337.46831,272.26355 333.64166,266.78209 329.63738,266.78209 C 326.96015,266.78209 327.02267,269.46839 330.1145,287.28258 L 331.004,292.4077 L 327.19673,287.28258 C 325.10272,284.46376 323.37043,280.52547 323.34719,278.53082 C 323.31324,275.61856 322.2755,275.17058 318.07893,276.25663 C 311.22006,278.03171 310.93084,278.42397 313.765,282.1079 C 315.79419,284.74552 315.52051,285.23253 312.00922,285.23253 C 308.59526,285.23253 307.95739,284.22505 308.45091,279.61242 C 308.84856,275.89576 310.33947,273.74541 312.85294,273.2633 C 314.94334,272.86233 317.50882,271.59759 318.55402,270.45278 C 319.83627,269.04834 319.03947,268.83285 316.1043,269.79033 C 312.21718,271.05833 311.87965,270.67031 312.93266,266.14428 C 313.58726,263.33075 313.19789,260.4704 312.05675,259.70958 C 310.92685,258.95627 310.0024,259.31688 310.0024,260.51095 C 310.0024,261.70502 308.3568,264.45721 306.34552,266.62692 C 300.51225,272.91967 298.60024,278.17657 298.60024,287.9218 C 298.60024,297.11131 302.22702,303.25787 306.11843,300.66339 C 307.20942,299.93601 308.10204,300.71907 308.10204,302.40349 C 308.10204,304.08793 309.01733,308.0631 310.13603,311.23719 C 311.96011,316.4127 312.3663,316.62995 314.07179,313.34239 C 315.11779,311.32616 315.50166,307.17481 314.92488,304.11717 C 314.19741,300.2607 315.08497,297.00108 317.82252,293.47545 C 321.64296,288.55521 321.85305,288.51724 324.40704,292.28515 C 326.91101,295.97927 327.22958,295.99723 330.66999,292.63845 C 332.83084,290.52889 333.90477,287.4908 333.32911,285.11604 C 332.60392,282.12443 333.33715,281.13243 336.27364,281.13243 C 338.42426,281.13243 340.721,280.19486 341.3775,279.04894 C 342.034,277.90303 343.46282,277.55995 344.55266,278.28655 C 345.64249,279.01317 347.23431,278.38559 348.09003,276.89194 C 349.28695,274.80276 350.53858,275.33335 353.51542,279.19187 C 355.64367,281.95046 357.38621,285.59129 357.38775,287.28258 C 357.38984,289.6044 356.70709,289.38289 354.60043,286.37824 C 353.06587,284.18957 351.81032,281.65263 351.81032,280.7406 C 351.81032,279.82858 350.95516,279.08238 349.90996,279.08238 C 348.86476,279.08238 348.0096,280.52061 348.0096,282.27845 C 348.0096,284.03628 347.11349,284.87705 346.01823,284.14682 C 344.923,283.41661 342.73054,283.35579 341.14611,284.01168 C 338.81878,284.9751 339.19159,286.0931 343.08661,289.83097 C 347.93997,294.48858 350.98671,304.77316 348.08602,306.7071 C 347.22745,307.27951 345.12898,305.44947 343.42276,302.64033 C 341.71654,299.83121 338.91106,297.53282 337.18836,297.53282 C 333.75751,297.53282 327.10564,303.2257 327.10564,306.16193 C 327.10564,307.17586 324.54411,310.95359 321.41336,314.5569 C 318.28259,318.16023 315.71711,323.0464 315.71228,325.41508 C 315.70743,327.78375 314.70661,332.80668 313.48819,336.57711 C 311.8014,341.79702 311.8014,343.62247 313.48819,344.22902 C 316.57852,345.34027 316.26582,348.78404 313.07458,348.78404 C 311.62869,348.78404 309.96,350.78755 309.36641,353.2363 C 308.19662,358.06188 311.92262,373.38463 314.26582,373.38463 C 315.05652,373.38463 315.70348,374.76841 315.70348,376.4597 C 315.70348,378.15099 316.48871,379.53477 317.44841,379.53477 C 318.40813,379.53477 320.69449,380.15618 322.52923,380.91571 C 325.1301,381.99237 325.58786,381.51721 324.60678,378.75918 C 323.858,376.65415 324.10915,375.7289 325.22704,376.47421 C 326.26027,377.16307 327.10564,378.97917 327.10564,380.50994 C 327.10564,387.53324 355.42021,389.95039 365.5844,383.79479 z M 359.41176,378.85008 C 359.41176,377.21287 358.12902,375.34234 356.56122,374.69332 C 354.99343,374.04431 353.72378,372.33121 353.73978,370.8864 C 353.75916,369.13623 354.23486,368.99361 355.16505,370.45908 C 355.93294,371.66886 358.05776,373.25433 359.88685,373.98234 C 363.56487,375.44626 364.24867,378.60196 361.31212,380.5598 C 360.26692,381.25665 359.41176,380.48727 359.41176,378.85008 z M 317.63294,375.94719 C 317.64894,375.10154 318.49101,373.02587 319.5042,371.33458 C 320.99384,368.84795 321.35194,369.14217 321.37547,372.87211 C 321.39147,375.40905 320.5494,377.48472 319.5042,377.48472 C 318.459,377.48472 317.61693,376.79283 317.63294,375.94719 z M 329.006,371.4067 C 329.006,370.2395 328.1897,369.28453 327.19203,369.28453 C 324.17025,369.28453 316.31658,359.74586 315.11735,354.61926 C 314.10085,350.27371 314.23272,350.15561 316.48259,353.39665 C 317.85233,355.36982 319.65319,356.98424 320.4845,356.98424 C 321.31581,356.98424 324.79893,359.29054 328.22474,362.10936 C 332.82217,365.89221 336.78733,367.23448 343.36459,367.23448 C 350.86619,367.23448 351.91982,367.69705 350.02581,370.15898 C 348.29954,372.40284 346.50763,372.60651 342.32637,371.0341 C 338.55406,369.61547 335.66562,369.68402 332.94142,371.25682 C 330.31812,372.77135 329.006,372.82131 329.006,371.4067 z M 369.33799,364.30719 C 369.77424,358.62089 371.77862,359.05321 373.25716,365.15249 C 373.90794,367.83707 373.33006,369.28453 371.60748,369.28453 C 369.96243,369.28453 369.10107,367.39543 369.33799,364.30719 z M 347.56408,354.34519 C 344.32081,349.88172 344.2219,349.8728 341.38791,353.78848 C 338.52662,357.74189 337.79654,356.96458 338.36879,350.57396 C 338.82967,345.42702 332.66001,343.82128 331.45904,348.77557 C 330.25758,353.73185 330.09656,353.7495 324.18825,349.57329 C 321.61202,347.75231 319.5042,344.70799 319.5042,342.80813 C 319.5042,340.90827 318.62101,338.40106 317.54155,337.23657 C 315.31727,334.83709 317.03297,328.28355 319.88543,328.28355 C 320.91666,328.28355 322.20765,330.1286 322.75429,332.38365 C 323.30095,334.6387 324.53046,336.48375 325.48657,336.48375 C 328.41003,336.48375 329.71544,330.02355 327.13909,328.30586 C 324.03073,326.23346 326.38455,321.96358 329.84554,323.3963 C 331.28554,323.99241 332.98477,326.71967 333.6216,329.45692 C 335.01735,335.4561 338.5078,336.08235 338.5078,330.3336 C 338.5078,326.06845 340.40235,325.46312 347.40787,327.4899 C 351.02576,328.53659 351.2904,329.32162 349.47463,333.62071 C 347.00956,339.45714 349.24818,343.02691 352.44079,338.35065 C 353.66182,336.56216 355.65144,335.45915 356.86216,335.89952 C 358.07288,336.33988 359.61987,335.72896 360.29995,334.54192 C 361.01268,333.29785 359.87902,332.38365 357.62356,332.38365 C 355.47148,332.38365 353.71068,331.50496 353.71068,330.431 C 353.71068,326.41337 365.4043,330.18038 369.2332,335.43146 C 371.3861,338.38402 373.59953,340.31221 374.15192,339.71633 C 374.7043,339.12044 374.09837,337.25783 372.80542,335.5772 C 371.51248,333.89657 370.81482,331.35574 371.25507,329.93091 C 371.69535,328.50609 370.27966,325.73819 368.1091,323.78005 C 365.93857,321.82188 365.1983,320.18908 366.46408,320.15156 C 367.72987,320.11405 370.4016,321.97783 372.40129,324.29332 C 376.83001,329.42141 377.90787,346.73399 373.79842,346.73399 C 372.3806,346.73399 370.77056,347.99906 370.22054,349.54526 C 368.62632,354.02696 359.06451,355.80519 357.08439,351.98823 C 354.97091,347.91414 351.81032,347.83677 351.81032,351.85911 C 351.81032,353.5504 352.66548,354.93419 353.71068,354.93419 C 354.75588,354.93419 355.61104,355.85671 355.61104,356.98424 C 355.61104,360.56563 350.98059,359.04704 347.56408,354.34519 z M 366.06302,348.78404 C 366.70899,347.65651 365.90431,346.73399 364.27482,346.73399 C 362.64534,346.73399 361.31212,347.65651 361.31212,348.78404 C 361.31212,349.91157 362.11681,350.83409 363.10032,350.83409 C 364.08384,350.83409 365.41705,349.91157 366.06302,348.78404 z M 383.68145,336.08659 C 382.72624,326.21909 383.46122,323.85705 386.09103,328.34292 C 387.34664,330.48471 387.86739,330.59738 387.88807,328.73173 C 387.90407,327.28692 386.63442,325.57382 385.06662,324.92481 C 381.69113,323.52748 381.2439,316.67452 384.4529,315.5206 C 385.70404,315.0707 386.0482,313.59647 385.23389,312.17515 C 384.11646,310.22467 383.15482,310.19202 381.09671,312.03464 C 378.93388,313.97103 378.41536,313.60629 378.41536,310.14847 C 378.41536,307.19806 377.53496,306.22615 375.59124,307.03078 C 373.74088,307.79676 372.11898,306.36084 370.88737,302.86635 C 369.85352,299.93289 368.1313,297.53282 367.06024,297.53282 C 365.98918,297.53282 365.11284,296.14904 365.11284,294.45775 C 365.11284,292.76646 364.25768,291.38267 363.21248,291.38267 C 362.16729,291.38267 361.31212,290.46015 361.31212,289.33263 C 361.31212,288.2051 363.54429,287.28258 366.27248,287.28258 C 371.42977,287.28258 387.91716,303.08491 387.91716,308.02792 C 387.91716,309.39662 388.49926,309.88851 389.21072,309.12101 C 389.9222,308.35351 391.72634,311.62547 393.21995,316.39204 C 395.13555,322.50531 395.31432,325.28193 393.82675,325.81685 C 392.66687,326.23393 391.71788,328.34335 391.71788,330.50443 C 391.71788,332.66553 390.75239,334.20307 389.57236,333.92119 C 388.39231,333.6393 387.25251,335.4839 387.03946,338.02028 C 386.35279,346.19551 384.5601,345.1632 383.68145,336.08659 z M 398.21389,318.54582 C 398.85915,309.38583 398.66066,304.34767 397.74512,306.64826 C 396.20562,310.51672 396.12518,310.50676 395.11083,306.32232 C 394.23649,302.71543 395.46473,301.42923 402.58449,298.49599 C 410.65239,295.17213 411.04401,294.64555 409.96545,288.57167 C 409.2026,284.27583 409.40533,283.12951 410.5793,285.10071 C 412.03195,287.53986 412.84519,287.58465 415.32754,285.36219 C 416.975,283.88724 418.34892,281.17899 418.38072,279.34386 C 418.42834,276.59397 418.80923,276.69621 420.54692,279.92532 C 422.09858,282.80871 422.08332,284.83141 420.48913,287.58518 C 417.64828,292.49241 417.73722,296.96487 420.69838,298.10882 C 422.21439,298.6945 421.1693,300.67608 417.80987,303.58579 C 411.56652,308.99335 406.92077,318.00018 406.92077,324.69666 C 406.92077,330.08559 403.70849,334.4337 399.72729,334.4337 C 397.61425,334.4337 397.31557,331.29815 398.21389,318.54582 z M 372.19358,318.20305 C 369.29421,315.15707 367.46112,312.08331 368.12007,311.37247 C 369.31631,310.08199 373.40888,313.81566 378.23008,320.59587 C 382.09484,326.03102 378.16022,324.47136 372.19358,318.20305 z M 351.29565,316.79473 C 350.53351,315.97258 349.90996,313.88538 349.90996,312.1565 C 349.90996,309.84898 350.47215,309.61956 352.02411,311.29377 C 353.18689,312.54814 353.81045,314.63535 353.4098,315.93201 C 353.00913,317.22866 352.05777,317.6169 351.29565,316.79473 z M 331.85654,309.83311 C 331.21057,308.70559 331.58768,307.78306 332.69456,307.78306 C 333.80145,307.78306 334.70708,308.70559 334.70708,309.83311 C 334.70708,310.96064 334.32997,311.88316 333.86906,311.88316 C 333.40815,311.88316 332.50251,310.96064 331.85654,309.83311 z M 361.6029,299.85493 C 355.67757,294.31113 356.58397,292.60992 363.21248,296.8339 C 366.34808,298.83204 368.91356,301.1905 368.91356,302.07493 C 368.91356,304.7885 365.89689,303.87243 361.6029,299.85493 z M 435.42617,298.47484 C 435.42617,297.86542 437.28274,294.65785 439.55189,291.34692 C 443.07407,286.20765 443.35088,284.55349 441.44415,280.03906 C 440.20439,277.10374 438.29772,275.3598 437.15863,276.11924 C 435.86524,276.98155 435.34128,275.77528 435.74144,272.85663 C 436.09065,270.30969 438.05229,267.20911 440.10067,265.96644 C 442.14905,264.72376 445.48677,261.537 447.51782,258.88477 C 450.75934,254.65183 451.4199,254.46591 452.92305,257.36347 C 453.86489,259.17899 454.15629,261.50083 453.5706,262.52313 C 452.98492,263.54543 453.58,264.85375 454.89302,265.43049 C 456.54139,266.15457 455.96847,267.63645 453.04197,270.2182 C 450.71088,272.27468 448.22389,277.18609 447.51533,281.13243 C 446.80676,285.07877 444.43821,290.79349 442.25186,293.83181 C 438.56514,298.95516 435.42617,301.09039 435.42617,298.47484 z M 381.18776,287.14619 C 380.49882,285.94365 380.39145,284.46749 380.94917,283.86582 C 382.31044,282.39735 386.0168,284.9848 386.0168,287.40357 C 386.0168,290.02347 382.736,289.8486 381.18776,287.14619 z M 368.09441,281.39764 C 365.03088,279.46316 362.15854,276.69655 361.71146,275.24965 C 361.06259,273.14968 361.80302,273.16754 365.38116,275.33811 C 367.84659,276.8337 370.29132,278.51862 370.81392,279.08238 C 371.33652,279.64614 372.83306,280.10741 374.13955,280.10741 C 376.77571,280.10741 377.70961,283.87009 375.23226,284.50993 C 374.36997,284.73264 371.15795,283.33211 368.09441,281.39764 z M 392.66806,281.13243 C 389.18725,279.51886 389.26722,279.36106 393.61824,279.25787 C 396.23124,279.19587 399.65189,280.03943 401.21968,281.13243 C 403.57243,282.77265 403.40649,283.10001 400.2695,283.00699 C 398.17911,282.94502 394.75846,282.10147 392.66806,281.13243 z M 424.02401,276.00731 C 424.02401,271.58457 424.79122,269.10168 425.92437,269.85716 C 426.96956,270.55401 427.82473,273.32158 427.82473,276.00731 C 427.82473,278.69304 426.96956,281.4606 425.92437,282.15745 C 424.79122,282.91294 424.02401,280.43004 424.02401,276.00731 z M 383.16626,279.08238 C 382.52029,277.95485 382.8974,277.03233 384.00428,277.03233 C 385.11117,277.03233 386.0168,277.95485 386.0168,279.08238 C 386.0168,280.20991 385.6397,281.13243 385.17878,281.13243 C 384.71787,281.13243 383.81223,280.20991 383.16626,279.08238 z M 406.00095,277.08533 C 405.28573,275.83693 403.0622,275.37647 401.05975,276.06206 C 399.0245,276.75892 397.41896,276.34366 397.41896,275.12044 C 397.41896,273.91691 398.9155,272.94636 400.74459,272.96362 C 404.93048,273.00315 410.04986,276.39015 408.4813,278.08229 C 407.83233,278.78238 406.71617,278.33374 406.00095,277.08533 z M 355.61104,272.93223 C 355.61104,271.80471 356.4662,270.88219 357.5114,270.88219 C 358.5566,270.88219 359.41176,271.80471 359.41176,272.93223 C 359.41176,274.05976 358.5566,274.98228 357.5114,274.98228 C 356.4662,274.98228 355.61104,274.05976 355.61104,272.93223 z M 427.67933,254.09028 C 427.26328,246.41145 425.60381,242.81525 420.30981,238.11986 C 412.60028,231.28207 412.91741,228.99805 420.87325,234.06185 C 426.99235,237.9566 431.62545,245.4199 431.62545,251.3822 C 431.62545,255.06551 427.87174,257.64154 427.67933,254.09028 z M 441.15798,242.24343 C 439.96031,239.8293 439.36151,236.75209 439.82731,235.40519 C 440.2931,234.05829 441.65522,235.62116 442.85426,238.87824 C 445.46999,245.98371 444.23198,248.43973 441.15798,242.24343 z M 447.29547,235.32218 C 447.10143,230.51236 445.6342,223.19877 444.03495,219.06974 C 440.67831,210.40337 440.54152,209.38072 442.73892,209.38072 C 444.68525,209.38072 450.64079,228.58486 450.59995,234.72925 C 450.54212,243.42709 447.64345,243.94721 447.29547,235.32218 z M 341.65535,237.65842 C 340.17187,231.53872 340.75564,231.46358 344.77268,237.25716 C 347.4905,241.17692 347.63263,242.1815 345.46943,242.1815 C 343.97474,242.1815 342.25841,240.14611 341.65535,237.65842 z M 421.5832,228.02737 C 419.79004,224.75271 418.32293,220.51499 418.32293,218.61023 C 418.32293,216.70546 416.6126,214.66454 414.52221,214.07482 C 412.06263,213.38096 410.72149,211.27851 410.72149,208.1166 C 410.72149,205.42929 409.89316,203.23058 408.88076,203.23058 C 407.86838,203.23058 407.48487,201.98011 408.02852,200.45175 C 408.57218,198.9234 407.32674,194.54142 405.26088,190.71402 C 401.93002,184.54301 401.79386,183.05879 404.0584,177.60497 C 406.32996,172.13427 406.62914,171.9644 406.76642,176.06743 C 406.96824,182.09869 410.17627,181.91337 415.63882,175.55492 C 420.92625,169.4003 422.12365,169.17947 422.12365,174.3589 C 422.12365,176.51992 419.77195,180.18077 416.89766,182.49415 C 414.02336,184.80752 412.79109,186.72953 414.15927,186.76524 C 415.52746,186.80095 416.11836,187.75271 415.47239,188.88023 C 414.82642,190.00776 415.31612,190.93028 416.56063,190.93028 C 418.09709,190.93028 418.5016,193.51824 417.82089,198.99308 C 417.10213,204.77377 417.56919,207.36667 419.47103,208.15395 C 421.37384,208.94164 422.12365,207.53178 422.12365,203.16624 C 422.12365,199.81905 422.83111,197.08043 423.69581,197.08043 C 424.5605,197.08043 425.00372,203.53808 424.68077,211.43077 C 424.3349,219.88281 424.86035,225.78111 425.95914,225.78111 C 426.9852,225.78111 427.82473,227.62616 427.82473,229.88121 C 427.82473,235.68965 425.38157,234.964 421.5832,228.02737 z M 320.69704,214.44875 C 319.93957,212.31938 321.21776,210.62647 324.6439,209.22127 C 330.52116,206.81072 351.12452,205.90751 353.04229,207.97632 C 353.75831,208.74875 348.85684,209.39485 342.15017,209.41211 C 335.44347,209.42939 328.67344,210.33777 327.10564,211.43077 C 323.66962,213.82619 323.61109,213.81844 344.20888,213.69628 C 362.95611,213.58508 356.08342,216.72826 336.49205,217.22552 C 324.8261,217.52161 321.58758,216.95227 320.69704,214.44875 z M 362.2623,209.23951 C 358.38563,208.07935 360.49506,207.86307 368.85406,208.5637 C 375.61513,209.13037 381.53,210.0073 381.99823,210.51239 C 383.41213,212.03767 368.37069,211.06756 362.2623,209.23951 z M 396.10889,202.21584 C 394.10318,200.70032 385.72542,198.44955 377.49164,197.21413 C 362.15689,194.91326 356.76735,192.98033 365.68666,192.98033 C 369.04486,192.98033 370.37866,192.09207 369.73549,190.28394 C 369.20795,188.80092 369.60816,185.34146 370.62486,182.59626 C 371.64153,179.85104 372.52757,178.71476 372.59382,180.07117 C 372.72738,182.80526 384.19558,186.80097 391.96029,186.81875 C 394.7066,186.82504 398.01817,188.21397 399.31932,189.90526 C 401.26197,192.43036 401.11613,192.98033 398.50392,192.98033 C 396.00702,192.98033 396.37455,194.03186 400.21268,197.8691 C 403.92143,201.57699 404.45682,203.02522 402.42913,203.86459 C 400.95873,204.47329 398.11461,203.73136 396.10889,202.21584 z M 355.61104,201.12226 L 341.35834,199.75263 L 357.5114,199.84635 C 366.39559,199.89791 376.65753,200.55901 380.31572,201.31546 C 386.6592,202.62718 386.57127,202.68623 378.41536,202.59137 C 373.71197,202.53667 363.45003,201.87558 355.61104,201.12226 z M 332.80672,195.03038 C 332.80672,193.90285 333.71236,192.98033 334.81924,192.98033 C 335.92612,192.98033 336.30323,193.90285 335.65726,195.03038 C 335.01129,196.15791 334.10566,197.08043 333.64474,197.08043 C 333.18383,197.08043 332.80672,196.15791 332.80672,195.03038 z M 340.05184,193.62997 C 341.42366,193.03777 343.06272,193.11059 343.69421,193.7918 C 344.32568,194.47303 343.20327,194.95754 341.19999,194.86853 C 338.98616,194.77017 338.53587,194.28439 340.05184,193.62997 z M 346.10924,194.23804 C 346.10924,192.55458 357.73165,191.70625 358.65741,193.32214 C 359.19567,194.26167 356.59254,195.03038 352.87266,195.03038 C 349.15278,195.03038 346.10924,194.67384 346.10924,194.23804 z M 447.77851,188.88023 C 447.13254,187.75271 447.50964,186.83018 448.61653,186.83018 C 449.72341,186.83018 450.62905,187.75271 450.62905,188.88023 C 450.62905,190.00776 450.25194,190.93028 449.79103,190.93028 C 449.33011,190.93028 448.42448,190.00776 447.77851,188.88023 z M 418.32293,186.83018 C 418.32293,185.70266 419.22856,184.78014 420.33544,184.78014 C 421.44233,184.78014 421.81944,185.70266 421.17347,186.83018 C 420.5275,187.95771 419.62186,188.88023 419.16095,188.88023 C 418.70003,188.88023 418.32293,187.95771 418.32293,186.83018 z M 424.02401,175.79391 C 424.02401,175.3616 426.16191,174.567 428.77491,174.02814 C 431.3879,173.48929 433.52581,173.843 433.52581,174.81417 C 433.52581,175.78534 431.3879,176.57994 428.77491,176.57994 C 426.16191,176.57994 424.02401,176.22623 424.02401,175.79391 z M 445.8,174.3935 C 445.11107,173.19096 444.95495,171.76739 445.45309,171.23001 C 445.95122,170.69263 446.86517,171.67653 447.4841,173.41645 C 448.76909,177.02886 447.67385,177.66427 445.8,174.3935 z M 427.84869,168.3204 C 431.32329,165.9505 433.52581,165.80427 433.52581,167.9435 C 433.52581,168.83106 431.61247,169.71275 429.27396,169.90279 C 425.93237,170.17434 425.62723,169.83557 427.84869,168.3204 z M 420.22329,166.3297 C 420.22329,165.20217 421.07845,164.27965 422.12365,164.27965 C 423.16884,164.27965 424.02401,165.20217 424.02401,166.3297 C 424.02401,167.45722 423.16884,168.37975 422.12365,168.37975 C 421.07845,168.37975 420.22329,167.45722 420.22329,166.3297 z M 380.31572,249.47767 C 380.31572,248.98045 379.46056,248.00348 378.41536,247.30662 C 377.37017,246.60977 376.515,247.01658 376.515,248.21066 C 376.515,249.40473 377.37017,250.3817 378.41536,250.3817 C 379.46056,250.3817 380.31572,249.97489 380.31572,249.47767 z M 307.2876,245.40301 C 311.21084,241.17075 310.6212,239.67983 306.20168,242.65726 C 304.11128,244.06556 302.40096,245.91843 302.40096,246.77474 C 302.40096,249.16542 304.29197,248.63461 307.2876,245.40301 z M 366.83776,236.30994 C 365.6473,235.88187 363.93012,236.79721 363.0218,238.34406 C 360.15323,243.22918 361.17019,244.32253 365.1572,240.63985 C 367.4821,238.4924 368.14652,236.78057 366.83776,236.30994 z M 300.38443,230.9941 C 297.5967,227.97419 292.10114,234.93107 293.70738,239.44659 C 294.92091,242.8581 295.34384,242.7393 298.61554,238.06804 C 300.88727,234.82451 301.53375,232.23913 300.38443,230.9941 z M 392.40511,237.05638 C 393.053,235.23497 392.42571,233.98131 390.86643,233.98131 C 389.41852,233.98131 387.80255,232.82815 387.27537,231.41875 C 386.70276,229.88789 386.25646,230.30057 386.16684,232.44377 C 386.07366,234.67164 384.39625,236.12328 381.74099,236.27392 C 378.28412,236.47001 378.55709,236.8162 383.16626,238.08141 C 386.30186,238.94212 389.41723,239.7555 390.08929,239.88891 C 390.76138,240.02231 391.80348,238.74767 392.40511,237.05638 z M 322.35474,236.03136 C 323.7569,233.58393 320.03294,233.58393 314.7533,236.03136 C 311.35958,237.60456 311.50019,237.80867 316.06641,237.93733 C 318.87902,238.01656 321.70877,237.15888 322.35474,236.03136 z M 358.58448,146.30347 C 357.88062,145.54417 356.50917,146.27999 355.53681,147.93863 C 352.69754,152.78179 353.44374,154.61022 356.78746,151.00314 C 358.47967,149.17762 359.28835,147.06276 358.58448,146.30347 z M 388.42842,140.3844 C 387.14182,139.82285 384.57633,139.78868 382.72734,140.30845 C 380.87834,140.82822 381.93103,141.28767 385.06662,141.32945 C 388.20222,141.37123 389.71502,140.94597 388.42842,140.3844 z M 242.74294,706.34988 C 241.14302,701.85218 241.25801,701.39244 243.98285,701.39244 C 245.29923,701.39244 247.44439,703.23748 248.74986,705.49253 C 250.81097,709.05285 250.64773,709.59263 247.50993,709.59263 C 245.52252,709.59263 243.37735,708.13341 242.74294,706.34988 z M 276.18181,702.02787 C 274.67127,696.71841 274.62583,693.68815 276.0294,691.86373 C 277.46563,689.99687 277.00301,687.07362 274.38783,681.49056 C 265.23759,661.95608 262.48321,654.99206 262.48812,651.40409 C 262.49906,643.39985 258.22475,632.01317 255.6148,633.09358 C 254.05916,633.73756 252.28377,631.99935 251.11765,628.69065 C 248.478,621.20092 248.69606,619.31432 252.04142,620.69917 C 253.62267,621.35375 254.89196,620.7569 254.89196,619.35879 C 254.89196,617.37906 255.50342,617.38584 257.7425,619.39048 C 259.3103,620.79413 260.59304,623.67465 260.59304,625.79164 C 260.59304,627.90864 261.4482,629.64073 262.4934,629.64073 C 263.5386,629.64073 264.23751,630.33262 264.04652,631.17826 C 263.32416,634.37689 272.23774,662.44151 273.97604,662.44151 C 279.13616,662.44151 272.65909,612.07085 266.19948,601.96507 C 264.75766,599.70942 260.90897,587.37186 259.7382,581.25238 C 259.32909,579.11403 257.64374,571.86617 255.99297,565.14599 C 252.60605,551.35797 251.98066,531.23838 254.93899,531.23838 C 257.63853,531.23838 260.24571,539.39301 261.28914,551.10012 C 261.77269,556.52531 263.43341,565.11544 264.97964,570.18931 C 266.52587,575.26318 269.2416,586.58306 271.01456,595.34462 C 272.78754,604.10616 276.35426,615.56806 278.94063,620.81551 C 282.87294,628.79369 283.76915,633.90725 284.41255,652.03655 C 284.83572,663.96068 285.61424,681.78884 286.14258,691.6547 C 287.08871,709.32163 287.03699,709.59263 282.71859,709.59263 C 279.32031,709.59263 277.84983,707.89091 276.18181,702.02787 z M 256.0401,624.0458 C 254.10834,621.9619 252.51446,625.09929 254.09941,627.86582 C 255.2967,629.95568 255.74433,629.9573 256.38802,627.8741 C 256.82814,626.44974 256.67157,624.72703 256.0401,624.0458 z M 321.40456,705.49253 C 321.40456,703.23748 322.25972,701.39244 323.30492,701.39244 C 324.35012,701.39244 325.20528,700.01835 325.20528,698.33893 C 325.20528,693.51201 334.92657,668.59165 336.80953,668.59165 C 337.74357,668.59165 338.5078,667.57793 338.5078,666.33892 C 338.5078,663.82761 344.34926,649.6926 346.04891,648.09117 C 347.10256,647.09839 352.30696,635.81435 352.66754,633.74082 C 353.25511,630.36187 364.09241,611.19029 365.41487,611.19029 C 366.29395,611.19029 367.0132,609.98865 367.0132,608.51998 C 367.0132,607.0513 371.07522,601.11698 376.03991,595.33261 C 386.14208,583.56252 392.27948,575.76227 402.68072,561.47382 C 409.1572,552.57693 409.98726,552.04427 412.26475,555.32367 C 413.65148,557.32046 414.30914,561.39501 413.74644,564.50369 C 412.41068,571.88318 403.29775,586.5897 400.06079,586.5897 C 398.65597,586.5897 395.99033,589.11141 394.13714,592.19351 C 389.74696,599.49492 384.60126,605.04014 382.21608,605.04014 C 381.17089,605.04014 380.31572,606.35804 380.31572,607.96878 C 380.31572,609.57954 379.18514,612.11705 377.80331,613.60773 C 372.81367,618.99042 359.41176,641.48394 359.41176,644.4758 C 359.41176,646.16014 357.90789,649.73832 356.06981,652.42731 C 352.81119,657.19447 346.53338,670.79632 335.59928,696.77983 C 331.24185,707.13468 329.36317,709.59263 325.80604,709.59263 C 322.67147,709.59263 321.40456,708.41248 321.40456,705.49253 z M 441.71737,699.8549 C 461.8135,679.70165 477.23409,662.62296 477.23409,660.5192 C 477.23409,656.07719 469.65137,658.56681 460.75151,665.93088 C 448.41308,676.14012 419.19814,687.6569 423.15389,680.7522 C 423.84391,679.54779 425.60469,679.05758 427.06677,679.66282 C 428.52885,680.26808 429.72509,679.86969 429.72509,678.77757 C 429.72509,677.68542 430.59724,676.79185 431.66321,676.79185 C 432.72918,676.79185 436.93393,674.52236 441.00712,671.74854 C 445.0803,668.97471 450.62186,666.10714 453.32169,665.37615 C 459.79798,663.62266 459.53313,660.05552 452.59856,655.63651 C 449.50099,653.6626 445.86655,650.89639 444.52203,649.4894 C 443.17749,648.08239 439.29815,644.82306 435.90126,642.24646 C 432.50436,639.66985 429.72509,636.66346 429.72509,635.56555 C 429.72509,634.46767 428.01476,631.58897 425.92437,629.16846 C 423.83397,626.74792 422.12365,624.01894 422.12365,623.10402 C 422.12365,618.97281 427.86695,622.26783 437.41176,631.87508 C 450.05253,644.5985 453.96876,646.43848 469.15824,646.79072 C 481.02354,647.06585 482.43313,646.5279 479.44854,642.86354 C 474.49248,636.77867 469.98041,613.77425 469.71788,593.25236 C 469.671,589.5879 468.08266,584.91762 466.18825,582.87399 C 464.29383,580.83036 463.08233,578.06277 463.49606,576.72384 C 463.90979,575.38491 463.10808,574.27528 461.71447,574.25802 C 459.81453,574.23449 459.89376,573.72948 462.03121,572.23936 C 464.40343,570.58554 464.24399,570.21967 461.08103,570.05887 C 458.99063,569.95257 458.34926,569.40031 459.65576,568.83161 C 461.10406,568.20117 462.03121,563.86354 462.03121,557.71819 C 462.03121,551.0381 461.23007,547.6282 459.65576,547.60739 C 457.88494,547.58398 457.92827,547.13295 459.82601,545.83535 C 463.09402,543.60081 462.08472,531.00603 458.39038,527.92067 C 456.0641,525.97784 456.24974,525.27889 459.60699,523.34063 C 463.31435,521.20022 463.6354,521.67667 464.60528,530.75845 C 468.21585,564.56707 474.91061,602.9894 477.19112,602.99063 C 477.73734,602.99093 478.09336,596.07202 477.98226,587.61526 C 477.87115,579.15852 478.40125,572.23936 479.16027,572.23936 C 481.11715,572.23936 484.84391,550.45353 485.6184,534.48656 C 485.97852,527.06243 485.63326,520.98814 484.85113,520.98814 C 484.06902,520.98814 482.30526,516.60616 480.93166,511.25041 C 475.09052,488.47547 463.89575,467.16661 458.71669,468.96502 C 456.22093,469.83165 456.01955,469.62966 457.91771,468.16357 C 459.31348,467.08549 460.34855,465.38405 460.21788,464.3826 C 459.73362,460.67117 467.74339,461.22844 468.81209,464.98052 C 471.26069,473.57724 476.11327,482.03721 478.59568,482.03721 C 480.06057,482.03721 480.76507,482.89955 480.16125,483.95352 C 478.87801,486.19338 486.77063,504.58775 489.01493,504.58775 C 490.40585,504.58775 491.42233,494.87954 490.67847,488.69987 C 490.50881,487.29046 491.18748,486.13731 492.18663,486.13731 C 493.18577,486.13731 494.58116,482.44722 495.28751,477.93712 C 495.99385,473.42701 497.26027,469.73692 498.10177,469.73692 C 500.39724,469.73692 502.31603,476.40559 500.41405,477.77321 C 497.24718,480.05039 494.46017,492.36843 496.06918,496.97678 C 496.94021,499.47152 496.94451,503.55899 496.07872,506.06003 C 493.54866,513.3687 497.45101,513.40644 500.13084,506.09923 C 501.46948,502.4491 503.59832,498.07884 504.86158,496.38755 C 506.12486,494.69626 507.72185,489.91764 508.41046,485.7684 C 510.52201,473.04527 522.41044,449.9551 530.87291,442.14097 C 541.80865,432.04306 542.81202,435.31059 531.99353,445.79036 C 527.12702,450.50451 521.83339,457.59038 520.22991,461.53672 C 512.85147,479.69602 509.59745,491.03719 505.78823,511.86999 C 503.53118,524.21389 500.95955,536.1585 500.07349,538.41355 C 497.10613,545.96557 493.94939,560.87912 493.40311,569.92664 C 493.10548,574.85604 491.80694,579.5926 490.51749,580.45231 C 489.22802,581.31202 488.49102,583.02965 488.87972,584.26927 C 489.64901,586.72273 511.44057,557.38495 511.44057,553.89581 C 511.44057,550.05248 552.53954,503.1396 554.27058,505.00701 C 554.92564,505.71364 549.74921,512.59668 542.76742,520.30262 C 521.13944,544.17393 519.34445,546.43962 517.19176,552.58521 C 514.24235,561.00528 517.81428,564.20684 521.64596,556.57756 C 523.26569,553.35253 524.62515,551.90435 524.667,553.35942 C 524.74136,555.9451 518.72467,566.12054 513.64069,572.00709 C 512.13116,573.75494 511.51592,577.25841 512.13354,580.5897 C 512.83095,584.3515 512.29271,586.58497 510.51099,587.32253 C 507.83498,588.4303 498.13805,608.49597 498.13805,612.92563 C 498.13805,614.22625 497.28289,615.29039 496.23769,615.29039 C 495.19249,615.29039 494.33733,616.69701 494.33733,618.4162 C 494.33733,620.13539 492.19942,622.41888 489.58643,623.49058 C 486.97343,624.56228 484.83553,625.8705 484.83553,626.39773 C 484.83553,627.6717 492.19629,641.21206 497.65994,649.98861 C 500.64394,654.78201 501.41368,657.67783 500.08485,659.11133 C 497.09456,662.33716 497.77586,665.31787 500.87025,662.54745 C 503.09846,660.55253 504.16502,661.27491 506.65227,666.46356 C 508.32966,669.96281 510.52659,672.27608 511.53433,671.6042 C 513.6363,670.20281 534.24489,626.0679 534.24489,622.9678 C 534.24489,613.71605 558.34313,574.28941 563.99795,574.28941 C 567.32273,574.28941 567.28244,577.72773 563.93308,579.82518 C 559.73284,582.45545 546.56169,605.77482 541.95218,618.74209 C 539.62099,625.3001 536.16663,634.35584 534.27585,638.86595 C 532.38505,643.37605 530.19691,649.37245 529.4133,652.19126 C 528.62969,655.01008 525.7618,660.91385 523.0402,665.31074 C 520.3186,669.70764 517.23667,674.76025 516.19147,676.53877 C 513.11007,681.78214 508.8638,684.85717 504.60847,684.92685 C 501.10611,684.98419 501.51613,686.00044 508.01525,693.37059 C 516.08057,702.51685 519.40663,702.12225 521.82391,691.7324 C 522.51384,688.76694 524.73564,684.06776 526.76125,681.28978 C 528.78687,678.5118 530.44417,675.02014 530.44417,673.53053 C 530.44417,669.19033 542.9687,647.21795 554.19867,631.85691 C 564.78548,617.37561 579.37301,606.81737 574.095,617.45624 C 572.94466,619.77497 570.83433,622.15612 569.40537,622.74764 C 564.35558,624.83808 543.53448,654.24974 539.54005,664.93511 C 537.31302,670.89255 534.2181,677.3869 532.66246,679.36698 C 531.10681,681.34706 530.40075,683.57849 531.09343,684.32574 C 531.78609,685.07296 531.03167,687.25919 529.41691,689.18403 C 525.99201,693.26662 523.06173,708.90556 526.10141,706.87894 C 527.17473,706.16335 528.59235,702.66818 529.25166,699.11194 C 530.48102,692.481 545.1098,674.7418 549.34872,674.7418 C 552.94462,674.7418 549.86811,686.16467 543.55386,696.25755 C 540.52433,701.10006 538.04561,706.01499 538.04561,707.1796 C 538.04561,708.52437 528.60749,709.35731 512.18127,709.46214 C 492.13907,709.59007 486.51929,709.0465 487.21581,707.04737 C 487.71018,705.62845 488.73533,702.1612 489.49392,699.34239 L 490.87316,694.21726 L 486.20797,699.8549 C 483.61628,702.98682 479.52946,705.50649 477.01298,705.52392 C 473.39101,705.54903 473.05447,705.95359 475.33373,707.54258 C 477.39541,708.97989 475.68619,709.53853 469.15756,709.56124 C 464.19287,709.57851 460.13085,708.96011 460.13085,708.18703 C 460.13085,707.41394 463.39268,702.5707 467.37937,697.42428 C 477.51361,684.34191 478.72104,681.93926 473.70626,684.8345 C 471.51368,686.10036 468.92294,688.72932 467.94906,690.67667 C 466.97518,692.62399 461.82462,696.94801 456.50335,700.28557 C 451.18209,703.62313 446.82833,707.08259 446.82833,707.97326 C 446.82833,708.86392 443.49358,709.59263 439.41778,709.59263 L 432.00723,709.59263 L 441.71737,699.8549 z M 501.93877,705.49253 C 501.93877,704.36501 501.13408,703.44248 500.15057,703.44248 C 499.16706,703.44248 497.83384,704.36501 497.18787,705.49253 C 496.5419,706.62006 497.34659,707.54258 498.97607,707.54258 C 500.60555,707.54258 501.93877,706.62006 501.93877,705.49253 z M 481.98499,678.8419 C 482.63096,677.71437 481.82627,676.79185 480.19679,676.79185 C 478.5673,676.79185 477.23409,677.71437 477.23409,678.8419 C 477.23409,679.96943 478.03878,680.89195 479.02229,680.89195 C 480.0058,680.89195 481.33902,679.96943 481.98499,678.8419 z M 506.68967,676.79185 C 507.3749,675.59581 505.4425,674.7418 502.05093,674.7418 C 498.68277,674.7418 496.22545,673.66397 496.20859,672.17924 C 496.17743,669.43595 492.5202,674.44428 492.46606,677.30436 C 492.42228,679.61829 505.33697,679.15295 506.68967,676.79185 z M 504.78931,582.4896 C 505.43528,581.36208 505.05817,580.43956 503.95129,580.43956 C 502.8444,580.43956 501.93877,581.36208 501.93877,582.4896 C 501.93877,583.61713 502.31588,584.53965 502.77679,584.53965 C 503.2377,584.53965 504.14334,583.61713 504.78931,582.4896 z M 497.18787,516.88804 C 497.83384,515.76052 497.45673,514.83799 496.34985,514.83799 C 495.24296,514.83799 494.33733,515.76052 494.33733,516.88804 C 494.33733,518.01557 494.71444,518.93809 495.17535,518.93809 C 495.63626,518.93809 496.5419,518.01557 497.18787,516.88804 z M 543.74669,708.73758 C 543.74669,708.26727 545.37636,703.88529 547.36817,698.99984 C 551.11026,689.82137 567.77853,672.69175 572.96771,672.69175 C 574.54115,672.69175 576.35702,671.76923 577.00299,670.6417 C 578.4855,668.05399 583.65425,667.94665 583.65425,670.50355 C 583.65425,671.5551 581.73014,673.07042 579.37844,673.87094 C 573.11182,676.00412 559.91032,688.79702 559.83415,692.81034 C 559.79806,694.71167 560.65323,697.04623 561.73451,697.99823 C 562.90263,699.0267 562.37856,699.27227 560.44312,698.60334 C 558.27278,697.85325 555.85145,699.49901 553.18736,703.53508 C 549.88185,708.5429 543.74669,711.9238 543.74669,708.73758 z M 561.80011,705.49253 C 563.6919,703.23748 566.42399,701.39244 567.87144,701.39244 C 569.31887,701.39244 573.71571,699.62441 577.64218,697.4635 C 581.56865,695.30258 587.94831,692.89359 591.81917,692.11022 C 597.57057,690.94627 598.85713,691.28973 598.85713,693.98911 C 598.85713,696.26018 597.1512,697.29234 593.39763,697.29234 C 587.57034,697.29234 571.26702,704.28643 569.36811,707.60095 C 568.74053,708.69637 566.00709,709.59263 563.2938,709.59263 C 558.48089,709.59263 558.44444,709.49259 561.80011,705.49253 z M 402.38008,701.75937 C 401.84973,700.83365 405.8613,698.38356 411.29463,696.31473 C 416.72799,694.24588 425.23549,690.47396 430.20018,687.93268 C 435.16487,685.39139 439.22537,683.92077 439.22348,684.66463 C 439.21786,686.90296 423.33647,697.01259 414.60563,700.33566 C 405.2299,703.90418 403.71024,704.08114 402.38008,701.75937 z M 253.90702,677.30436 C 253.14165,675.33119 251.83378,670.48795 251.00063,666.54161 C 250.16749,662.59526 248.91909,657.06013 248.22639,654.24131 L 246.96694,649.11619 L 250.82243,654.24131 C 252.94295,657.06013 255.62973,663.05652 256.79304,667.56663 C 257.95636,672.07674 259.35853,676.91998 259.90897,678.32939 C 260.45941,679.73879 259.64725,680.89195 258.10417,680.89195 C 256.5611,680.89195 254.67239,679.27753 253.90702,677.30436 z M 597.39766,662.44151 C 597.39766,658.49516 597.78875,656.88075 598.26675,658.85392 C 598.74473,660.82709 598.74473,664.05592 598.26675,666.02909 C 597.78875,668.00227 597.39766,666.38785 597.39766,662.44151 z M 239.92695,639.52266 C 238.78922,632.55493 237.11736,626.32791 236.21168,625.68483 C 235.30601,625.04175 234.01779,620.36426 233.34894,615.29039 C 232.20782,606.63358 232.2951,606.38096 234.76551,611.19029 C 238.58658,618.62899 245.39016,641.81923 245.39016,647.40473 C 245.39016,656.88524 241.95205,651.9249 239.92695,639.52266 z M 597.43601,645.01609 C 597.4571,640.50599 597.84628,638.90233 598.30082,641.45241 C 598.75537,644.00249 598.73811,647.69258 598.26247,649.65261 C 597.78683,651.61264 597.41491,649.5262 597.43601,645.01609 z M 411.56103,640.86772 C 408.48628,638.15655 404.99312,635.90514 403.79845,635.86459 C 402.60377,635.82404 401.13409,634.40709 400.53246,632.7158 C 399.93084,631.02451 398.12903,629.64073 396.52842,629.64073 C 394.92782,629.64073 393.61824,628.25694 393.61824,626.56565 C 393.61824,624.87436 394.25962,623.49402 395.04351,623.49825 C 397.3728,623.51077 407.49224,630.7448 412.97965,636.32013 C 415.78944,639.17497 418.56872,640.99252 419.15582,640.35918 C 419.74293,639.72582 420.22329,640.22945 420.22329,641.47836 C 420.22329,645.94218 417.06339,645.71942 411.56103,640.86772 z M 425.75189,642.30943 C 420.95386,640.09782 410.72149,630.12698 410.72149,627.66321 C 410.72149,624.39572 425.98542,634.07447 429.28384,639.43346 C 432.13206,644.061 431.19939,644.82044 425.75189,642.30943 z M 498.16148,641.42851 C 498.17437,640.0191 502.26299,634.25334 507.24733,628.6157 C 514.33427,620.59987 524.93736,606.72832 529.73412,599.19722 C 529.98558,598.80244 531.11891,599.09789 532.25267,599.85376 C 534.26378,601.19462 525.60671,621.59593 522.36764,623.1489 C 521.58374,623.52475 520.94237,625.04046 520.94237,626.51715 C 520.94237,628.96831 519.9725,629.75053 514.29111,631.88155 C 513.24591,632.2736 510.39062,635.15862 507.94602,638.29271 C 503.3304,644.21012 498.12079,645.87972 498.16148,641.42851 z M 466.98915,634.09464 C 464.13895,629.22401 461.53098,622.16641 461.19362,618.41109 C 460.85629,614.65577 459.86252,610.34167 458.98527,608.8242 C 458.10801,607.30674 457.12701,604.22012 456.80524,601.96507 C 456.48347,599.71001 455.38979,597.55746 454.37481,597.18163 C 452.11234,596.34383 451.91379,592.73985 454.1301,592.73985 C 455.61259,592.73985 466.1017,615.9071 471.48615,631.07408 C 475.31609,641.86236 472.6016,643.68563 466.98915,634.09464 z M 246.34034,613.24034 C 245.69437,612.11281 246.07147,611.19029 247.17836,611.19029 C 248.28524,611.19029 249.19088,612.11281 249.19088,613.24034 C 249.19088,614.36786 248.81377,615.29039 248.35286,615.29039 C 247.89194,615.29039 246.98631,614.36786 246.34034,613.24034 z M 252.30437,612.21531 C 251.70275,610.52402 251.94735,609.14024 252.84793,609.14024 C 253.74849,609.14024 254.97755,610.52402 255.57919,612.21531 C 256.1808,613.9066 255.93621,615.29039 255.03563,615.29039 C 254.13506,615.29039 252.90601,613.9066 252.30437,612.21531 z M 507.63985,602.8691 C 507.63985,601.67503 508.49501,601.26822 509.54021,601.96507 C 510.58541,602.66192 511.44057,603.63889 511.44057,604.13611 C 511.44057,604.63333 510.58541,605.04014 509.54021,605.04014 C 508.49501,605.04014 507.63985,604.06317 507.63985,602.8691 z M 238.95252,595.8789 C 237.21903,593.02489 236.35275,590.6898 237.02741,590.6898 C 237.70208,590.6898 237.42696,589.53665 236.41605,588.12724 C 235.40511,586.71783 234.05873,583.99022 233.42405,582.06588 C 232.42755,579.04454 232.88543,578.86955 236.77936,580.78349 C 239.25946,582.00251 240.89383,584.10976 240.41129,585.4663 C 239.92875,586.82281 240.44795,590.52602 241.56504,593.69566 C 244.23647,601.27547 242.90574,602.38754 238.95252,595.8789 z M 524.74309,596.3268 C 524.74309,594.46603 523.25368,592.04441 521.43329,590.94542 C 519.6129,589.84643 518.78149,588.23743 519.58572,587.36987 C 520.38994,586.50229 522.91506,587.80663 525.19707,590.26839 C 528.44531,593.7725 528.84646,595.28343 527.04464,597.22718 C 525.24281,599.17093 524.74309,598.97544 524.74309,596.3268 z M 494.44688,568.65177 C 494.59059,566.63467 499.96772,558.36912 516.31855,535.0313 C 534.80054,508.65168 538.04561,503.40212 538.04561,499.88356 C 538.04561,496.20377 550.91266,467.68687 552.57301,467.68687 C 553.21803,467.68687 553.2598,470.9176 552.6658,474.86629 C 550.68006,488.06675 532.92705,519.16962 507.17835,554.55923 C 504.81918,557.80173 501.62192,562.64497 500.07334,565.32198 C 497.36949,569.99614 494.21821,571.86109 494.44688,568.65177 z M 238.7389,553.78892 C 239.38487,552.66139 240.2905,551.73887 240.75142,551.73887 C 241.21233,551.73887 241.58944,552.66139 241.58944,553.78892 C 241.58944,554.91645 240.6838,555.83897 239.57692,555.83897 C 238.47003,555.83897 238.09293,554.91645 238.7389,553.78892 z M 241.58944,544.78304 C 241.58944,544.3399 242.87218,543.44634 244.43998,542.79732 C 246.00777,542.14831 247.29052,542.51089 247.29052,543.60301 C 247.29052,544.69515 246.00777,545.58873 244.43998,545.58873 C 242.87218,545.58873 241.58944,545.22615 241.58944,544.78304 z M 442.60293,531.22278 C 439.77632,525.06136 438.1692,519.25907 439.03155,518.3288 C 440.97056,516.23705 449.15653,534.50292 448.33712,539.09292 C 447.9892,541.04184 445.60852,537.77437 442.60293,531.22278 z M 298.90029,523.03819 C 298.90029,520.21937 299.33163,519.06622 299.85881,520.47563 C 300.38599,521.88504 300.38599,524.19134 299.85881,525.60075 C 299.33163,527.01016 298.90029,525.85701 298.90029,523.03819 z M 304.30132,520.3048 C 304.30132,518.42558 303.44616,516.88804 302.40096,516.88804 C 301.35576,516.88804 300.5006,515.96552 300.5006,514.83799 C 300.5006,513.71047 301.29814,512.78794 302.2729,512.78794 C 304.41274,512.78794 307.01032,520.79915 305.42502,522.50934 C 304.80699,523.17605 304.30132,522.184 304.30132,520.3048 z M 456.23918,522.77668 C 454.75598,510.32631 454.79103,500.48765 456.31854,500.48765 C 457.37012,500.48765 458.23049,501.41017 458.23049,502.5377 C 458.23049,505.50414 458.31194,505.94621 460.09237,512.64319 C 461.2722,517.08114 460.98232,519.37512 459.01961,521.13234 C 457.54039,522.45667 456.28919,523.19664 456.23918,522.77668 z M 295.7497,494.33751 C 295.10373,493.20998 295.48084,492.28746 296.58772,492.28746 C 297.6946,492.28746 298.60024,493.20998 298.60024,494.33751 C 298.60024,495.46503 298.22313,496.38755 297.76222,496.38755 C 297.30131,496.38755 296.39567,495.46503 295.7497,494.33751 z M 248.36287,485.53638 C 249.07651,483.51458 250.13914,482.3768 250.72422,483.00799 C 251.30932,483.63918 250.72544,485.29337 249.42669,486.684 C 247.54986,488.69358 247.33158,488.45811 248.36287,485.53638 z M 493.38715,465.63682 C 492.74118,464.5093 493.11829,463.58677 494.22517,463.58677 C 495.33205,463.58677 496.23769,464.5093 496.23769,465.63682 C 496.23769,466.76435 495.86058,467.68687 495.39967,467.68687 C 494.93876,467.68687 494.03312,466.76435 493.38715,465.63682 z M 333.35024,450.26146 C 333.36452,444.62382 333.73358,442.56084 334.17038,445.67703 C 334.6072,448.79323 334.59551,453.40584 334.14444,455.92728 C 333.69337,458.44872 333.33599,455.89909 333.35024,450.26146 z M 440.32818,457.57941 C 438.10514,453.85288 438.73091,435.96454 441.39757,427.00968 C 442.87119,422.06117 442.85308,419.52745 441.33237,417.88696 C 438.2662,414.57927 438.75592,408.23546 442.07743,408.23546 C 444.35007,408.23546 444.88616,411.0408 444.72172,422.07329 C 444.38878,444.41056 442.34161,460.95457 440.32818,457.57941 z M 363.41168,436.62273 C 356.99698,434.05117 359.12774,432.87081 367.02609,434.62049 C 371.16222,435.53676 372.59,436.53517 370.81392,437.26925 C 369.24613,437.91725 365.91512,437.62631 363.41168,436.62273 z M 358.93667,426.56359 C 354.16325,423.5042 354.67109,419.84882 359.48354,422.62725 C 361.61343,423.85691 365.13525,424.25382 367.30983,423.50926 C 370.1499,422.53686 371.02452,422.93795 370.41481,424.93323 C 369.33485,428.46749 363.25471,429.33111 358.93667,426.56359 z M 359.41176,416.76782 C 359.41176,415.82299 362.44002,414.92712 366.14122,414.77702 C 370.06649,414.61783 372.39542,415.33369 371.73016,416.4949 C 370.33701,418.9266 359.41176,419.16865 359.41176,416.76782 z M 392.19297,398.79137 C 392.19297,395.37441 392.72918,394.38332 393.67997,396.04289 C 394.49781,397.47044 394.72701,399.87523 394.18928,401.3869 C 392.73855,405.46522 392.19297,404.75589 392.19297,398.79137 z M 402.29204,374.83374 C 403.00568,372.81195 404.06829,371.67417 404.65339,372.30536 C 405.23849,372.93655 404.6546,374.59073 403.35586,375.98136 C 401.47903,377.99094 401.26075,377.75547 402.29204,374.83374 z" id="path2453" style="fill:#000000"/>
  </g>
</svg>
